<svg xmlns="http://www.w3.org/2000/svg" xmlns:xlink="http://www.w3.org/1999/xlink" width="500" zoomAndPan="magnify" viewBox="0 0 375 374.999991" height="500" preserveAspectRatio="xMidYMid meet" version="1.0"><defs><clipPath id="4a88cfab1f"><path d="M 50.71875 50.71875 L 324.28125 50.71875 L 324.28125 324.28125 L 50.71875 324.28125 Z M 50.71875 50.71875 " clip-rule="nonzero"/></clipPath><clipPath id="e3509eea62"><path d="M 187.5 50.71875 C 111.957031 50.71875 50.71875 111.957031 50.71875 187.5 C 50.71875 263.042969 111.957031 324.28125 187.5 324.28125 C 263.042969 324.28125 324.28125 263.042969 324.28125 187.5 C 324.28125 111.957031 263.042969 50.71875 187.5 50.71875 " clip-rule="nonzero"/></clipPath><clipPath id="3b0fe1d198"><path d="M 103.742188 103.742188 L 270.992188 103.742188 L 270.992188 270.992188 L 103.742188 270.992188 Z M 103.742188 103.742188 " clip-rule="nonzero"/></clipPath></defs><g clip-path="url(#4a88cfab1f)"><g clip-path="url(#e3509eea62)"><path fill="#222222" d="M 50.71875 50.71875 L 324.28125 50.71875 L 324.28125 324.28125 L 50.71875 324.28125 Z M 50.71875 50.71875 " fill-opacity="1" fill-rule="nonzero"/></g></g><g clip-path="url(#3b0fe1d198)"><path fill="#ffffff" d="M 246.742188 185.699219 C 251.496094 181.039062 254.265625 174.675781 254.265625 167.855469 C 254.265625 154.023438 243.011719 142.765625 229.179688 142.765625 C 222.339844 142.765625 215.9375 145.5 211.238281 150.332031 C 209.234375 148.917969 207.125 147.703125 204.921875 146.679688 C 209.679688 142.019531 212.453125 135.652344 212.453125 128.828125 C 212.453125 115 201.199219 103.742188 187.367188 103.742188 C 173.535156 103.742188 162.28125 115 162.28125 128.828125 C 162.28125 135.65625 165.054688 142.023438 169.8125 146.679688 C 167.605469 147.703125 165.5 148.917969 163.496094 150.332031 C 158.792969 145.5 152.394531 142.765625 145.554688 142.765625 C 131.722656 142.765625 120.46875 154.023438 120.46875 167.855469 C 120.46875 174.679688 123.238281 181.042969 127.992188 185.699219 C 113.320312 192.460938 103.742188 207.125 103.742188 223.605469 L 103.742188 248.691406 C 103.742188 250.230469 104.992188 251.480469 106.53125 251.480469 L 146.410156 251.480469 C 145.851562 254.214844 145.554688 257.011719 145.554688 259.84375 L 145.554688 268.203125 C 145.554688 269.742188 146.804688 270.992188 148.34375 270.992188 L 226.390625 270.992188 C 227.929688 270.992188 229.179688 269.742188 229.179688 268.203125 L 229.179688 259.84375 C 229.179688 257.011719 228.882812 254.214844 228.324219 251.480469 L 268.203125 251.480469 C 269.742188 251.480469 270.992188 250.230469 270.992188 248.691406 L 270.992188 223.605469 C 270.992188 207.121094 261.414062 192.460938 246.742188 185.699219 Z M 229.179688 148.34375 C 239.941406 148.34375 248.691406 157.09375 248.691406 167.855469 C 248.691406 174.480469 245.375 180.589844 239.804688 184.199219 C 236.644531 186.273438 232.972656 187.367188 229.179688 187.367188 C 228.761719 187.367188 228.34375 187.34375 227.757812 187.3125 C 227.636719 187.3125 227.53125 187.292969 227.402344 187.273438 C 227.289062 187.261719 226.929688 187.207031 226.820312 187.207031 L 226.425781 187.148438 C 226.269531 187.128906 226.117188 187.113281 225.730469 187.03125 C 225.085938 186.941406 224.488281 186.800781 223.746094 186.585938 C 223.480469 186.519531 223.21875 186.429688 222.980469 186.347656 C 221.359375 185.789062 219.875 185.070312 218.546875 184.191406 C 212.984375 180.589844 209.667969 174.480469 209.667969 167.855469 C 209.667969 166.488281 209.863281 165.140625 210.148438 163.816406 C 210.765625 160.917969 211.996094 158.15625 213.839844 155.808594 C 217.5625 151.0625 223.152344 148.34375 229.179688 148.34375 Z M 167.855469 128.828125 C 167.855469 118.070312 176.609375 109.316406 187.367188 109.316406 C 198.128906 109.316406 206.878906 118.070312 206.878906 128.828125 C 206.878906 135.457031 203.5625 141.5625 197.992188 145.175781 C 191.71875 149.289062 183.183594 149.308594 176.878906 145.25 C 176.832031 145.21875 176.777344 145.199219 176.730469 145.171875 C 171.171875 141.5625 167.855469 135.457031 167.855469 128.828125 Z M 174.875 150.574219 C 175.222656 150.773438 175.59375 150.917969 175.953125 151.097656 C 176.433594 151.347656 176.910156 151.59375 177.398438 151.808594 C 177.855469 152.003906 178.320312 152.164062 178.785156 152.332031 C 179.460938 152.578125 180.136719 152.820312 180.832031 153.011719 C 180.957031 153.042969 181.085938 153.0625 181.214844 153.09375 C 183.214844 153.605469 185.269531 153.917969 187.367188 153.917969 C 189.46875 153.917969 191.527344 153.605469 193.535156 153.09375 C 193.652344 153.0625 193.777344 153.042969 193.898438 153.015625 C 194.601562 152.824219 195.28125 152.578125 195.964844 152.328125 C 196.425781 152.164062 196.882812 152.003906 197.328125 151.808594 C 197.824219 151.59375 198.300781 151.34375 198.785156 151.097656 C 199.140625 150.914062 199.511719 150.769531 199.859375 150.570312 C 202.675781 151.597656 205.339844 152.980469 207.820312 154.699219 C 207.761719 154.800781 207.71875 154.914062 207.65625 155.011719 C 207.128906 155.894531 206.640625 156.800781 206.226562 157.742188 C 206.214844 157.773438 206.203125 157.804688 206.1875 157.839844 C 205.789062 158.761719 205.457031 159.714844 205.164062 160.679688 C 205.109375 160.863281 205.050781 161.046875 205 161.230469 C 204.734375 162.191406 204.53125 163.167969 204.382812 164.160156 C 204.355469 164.351562 204.332031 164.546875 204.308594 164.738281 C 204.179688 165.773438 204.09375 166.808594 204.09375 167.855469 C 204.09375 168.828125 204.164062 169.789062 204.273438 170.742188 C 204.308594 171.039062 204.363281 171.332031 204.40625 171.632812 C 204.507812 172.292969 204.628906 172.945312 204.777344 173.589844 C 204.851562 173.914062 204.933594 174.234375 205.023438 174.554688 C 205.199219 175.1875 205.402344 175.8125 205.628906 176.433594 C 205.730469 176.710938 205.820312 176.992188 205.933594 177.265625 C 206.285156 178.132812 206.667969 178.984375 207.109375 179.800781 C 207.140625 179.855469 207.175781 179.90625 207.207031 179.957031 C 207.625 180.726562 208.09375 181.464844 208.597656 182.179688 C 208.777344 182.441406 208.980469 182.691406 209.171875 182.945312 C 209.550781 183.445312 209.941406 183.933594 210.363281 184.40625 C 210.59375 184.671875 210.835938 184.929688 211.082031 185.1875 C 211.242188 185.355469 211.382812 185.535156 211.550781 185.699219 C 211.398438 185.765625 211.261719 185.867188 211.109375 185.941406 C 209.691406 186.617188 208.308594 187.359375 206.984375 188.191406 C 206.9375 188.222656 206.882812 188.242188 206.835938 188.273438 C 206.800781 188.230469 206.761719 188.195312 206.730469 188.15625 C 206.523438 187.902344 206.292969 187.675781 206.078125 187.433594 C 205.632812 186.929688 205.179688 186.429688 204.695312 185.964844 C 204.417969 185.695312 204.121094 185.453125 203.832031 185.195312 C 203.375 184.796875 202.917969 184.40625 202.4375 184.042969 C 202.117188 183.800781 201.777344 183.574219 201.445312 183.34375 C 200.960938 183.019531 200.472656 182.703125 199.972656 182.410156 C 199.617188 182.203125 199.257812 182.007812 198.894531 181.820312 C 198.378906 181.550781 197.851562 181.308594 197.316406 181.078125 C 196.941406 180.917969 196.570312 180.757812 196.191406 180.617188 C 195.625 180.402344 195.050781 180.226562 194.46875 180.058594 C 194.097656 179.949219 193.730469 179.828125 193.351562 179.738281 C 192.707031 179.582031 192.042969 179.46875 191.382812 179.363281 C 191.054688 179.308594 190.734375 179.234375 190.40625 179.195312 C 189.402344 179.074219 188.390625 179.003906 187.367188 179.003906 C 186.34375 179.003906 185.335938 179.074219 184.335938 179.195312 C 183.996094 179.234375 183.664062 179.308594 183.328125 179.363281 C 182.679688 179.46875 182.03125 179.578125 181.398438 179.730469 C 180.996094 179.828125 180.605469 179.957031 180.210938 180.074219 C 179.664062 180.234375 179.125 180.398438 178.59375 180.597656 C 178.164062 180.753906 177.746094 180.933594 177.328125 181.113281 C 176.859375 181.320312 176.398438 181.53125 175.945312 181.761719 C 175.503906 181.988281 175.070312 182.222656 174.644531 182.476562 C 174.25 182.707031 173.863281 182.953125 173.484375 183.207031 C 173.039062 183.503906 172.601562 183.800781 172.179688 184.125 C 171.847656 184.378906 171.527344 184.652344 171.207031 184.921875 C 170.78125 185.285156 170.355469 185.644531 169.949219 186.035156 C 169.652344 186.324219 169.375 186.640625 169.09375 186.945312 C 168.714844 187.351562 168.328125 187.746094 167.980469 188.179688 C 167.957031 188.210938 167.925781 188.238281 167.898438 188.269531 C 167.851562 188.238281 167.800781 188.21875 167.75 188.191406 C 166.425781 187.355469 165.042969 186.613281 163.625 185.9375 C 163.472656 185.863281 163.335938 185.765625 163.183594 185.695312 C 163.355469 185.523438 163.507812 185.335938 163.671875 185.164062 C 163.902344 184.925781 164.121094 184.683594 164.339844 184.4375 C 164.78125 183.941406 165.195312 183.425781 165.59375 182.898438 C 165.769531 182.664062 165.953125 182.4375 166.121094 182.199219 C 166.644531 181.449219 167.136719 180.675781 167.574219 179.875 C 167.585938 179.851562 167.605469 179.832031 167.613281 179.808594 C 168.0625 178.984375 168.453125 178.128906 168.804688 177.253906 C 168.914062 176.988281 169 176.714844 169.097656 176.445312 C 169.328125 175.820312 169.53125 175.1875 169.710938 174.542969 C 169.796875 174.230469 169.878906 173.910156 169.953125 173.589844 C 170.105469 172.945312 170.226562 172.289062 170.328125 171.625 C 170.371094 171.332031 170.425781 171.039062 170.460938 170.738281 C 170.570312 169.789062 170.640625 168.828125 170.640625 167.855469 C 170.640625 166.808594 170.554688 165.773438 170.425781 164.742188 C 170.398438 164.546875 170.378906 164.355469 170.351562 164.160156 C 170.203125 163.171875 170 162.195312 169.734375 161.230469 C 169.683594 161.046875 169.621094 160.867188 169.570312 160.683594 C 169.277344 159.714844 168.949219 158.761719 168.546875 157.835938 C 168.53125 157.808594 168.523438 157.777344 168.511719 157.746094 C 168.09375 156.804688 167.605469 155.894531 167.078125 155.011719 C 167.019531 154.914062 166.976562 154.804688 166.914062 154.703125 C 169.394531 152.984375 172.058594 151.597656 174.875 150.574219 Z M 206.726562 206.546875 C 206.015625 212.203125 202.867188 217.277344 197.992188 220.4375 C 195.515625 222.0625 192.765625 223.070312 189.726562 223.441406 C 188.347656 223.65625 186.476562 223.671875 184.917969 223.433594 C 184.113281 223.335938 183.324219 223.179688 182.550781 222.984375 C 180.488281 222.464844 178.535156 221.621094 176.726562 220.433594 C 171.171875 216.824219 167.855469 210.71875 167.855469 204.09375 C 167.855469 200.636719 168.761719 197.269531 170.574219 194.183594 C 170.652344 194.023438 170.75 193.867188 170.859375 193.710938 C 170.886719 193.667969 170.90625 193.640625 170.933594 193.59375 C 174.503906 187.949219 180.648438 184.578125 187.367188 184.578125 C 194.089844 184.578125 200.230469 187.949219 203.871094 193.707031 C 203.984375 193.863281 204.082031 194.023438 204.253906 194.355469 C 205.972656 197.269531 206.878906 200.636719 206.878906 204.09375 C 206.878906 204.921875 206.828125 205.738281 206.726562 206.546875 Z M 126.042969 167.855469 C 126.042969 157.09375 134.796875 148.34375 145.554688 148.34375 C 151.582031 148.34375 157.171875 151.0625 160.898438 155.808594 C 163.585938 159.226562 165.066406 163.503906 165.066406 167.855469 C 165.066406 168.683594 165.015625 169.503906 164.914062 170.3125 C 164.203125 175.964844 161.054688 181.039062 156.171875 184.203125 C 154.863281 185.066406 153.375 185.789062 151.777344 186.339844 C 151.515625 186.425781 151.253906 186.515625 150.863281 186.617188 C 150.242188 186.800781 149.648438 186.941406 148.773438 187.074219 C 148.617188 187.109375 148.460938 187.128906 148.308594 187.148438 L 147.671875 187.253906 C 147.558594 187.253906 147.421875 187.265625 147.3125 187.277344 C 147.203125 187.292969 147.097656 187.3125 146.808594 187.316406 C 145.757812 187.378906 144.710938 187.359375 143.671875 187.257812 C 142.636719 187.160156 141.613281 186.976562 140.605469 186.714844 C 140.585938 186.710938 140.570312 186.699219 140.550781 186.695312 C 139.566406 186.4375 138.601562 186.105469 137.671875 185.691406 C 137.238281 185.503906 136.839844 185.238281 136.425781 185.015625 C 135.921875 184.746094 135.398438 184.511719 134.921875 184.195312 C 129.359375 180.589844 126.042969 174.480469 126.042969 167.855469 Z M 109.316406 223.605469 C 109.316406 208.316406 118.808594 194.808594 133.0625 189.597656 C 133.433594 189.8125 133.828125 189.96875 134.207031 190.160156 C 134.632812 190.378906 135.058594 190.605469 135.496094 190.796875 C 136.136719 191.082031 136.792969 191.3125 137.457031 191.539062 C 137.878906 191.683594 138.296875 191.847656 138.726562 191.972656 C 139.46875 192.183594 140.226562 192.328125 140.988281 192.472656 C 141.359375 192.539062 141.722656 192.636719 142.097656 192.691406 C 143.234375 192.851562 144.390625 192.941406 145.554688 192.941406 C 146.085938 192.941406 146.613281 192.914062 146.976562 192.886719 C 147.289062 192.886719 147.574219 192.863281 147.867188 192.828125 C 148.25 192.8125 148.605469 192.765625 148.769531 192.714844 L 149.050781 192.675781 C 149.375 192.628906 149.691406 192.585938 149.796875 192.550781 C 150.679688 192.425781 151.523438 192.238281 152.332031 191.996094 C 152.738281 191.898438 153.144531 191.765625 153.570312 191.621094 C 154.503906 191.300781 155.390625 190.921875 156.257812 190.515625 C 156.523438 190.386719 156.777344 190.246094 157.039062 190.113281 C 157.363281 189.945312 157.699219 189.796875 158.011719 189.613281 C 158.199219 189.683594 158.386719 189.75 158.574219 189.824219 C 159.398438 190.140625 160.207031 190.488281 161.003906 190.859375 C 161.261719 190.984375 161.527344 191.089844 161.78125 191.21875 C 162.796875 191.726562 163.789062 192.277344 164.746094 192.882812 C 164.792969 192.910156 164.839844 192.945312 164.886719 192.976562 C 164.746094 193.25 164.644531 193.546875 164.519531 193.828125 C 164.347656 194.207031 164.179688 194.585938 164.03125 194.972656 C 163.796875 195.5625 163.597656 196.167969 163.410156 196.773438 C 163.292969 197.15625 163.167969 197.535156 163.070312 197.917969 C 162.898438 198.59375 162.777344 199.277344 162.660156 199.96875 C 162.605469 200.300781 162.527344 200.628906 162.484375 200.96875 C 162.359375 202 162.28125 203.042969 162.28125 204.09375 C 162.28125 205.066406 162.347656 206.03125 162.460938 206.984375 C 162.496094 207.28125 162.550781 207.570312 162.59375 207.871094 C 162.695312 208.53125 162.816406 209.183594 162.964844 209.832031 C 163.039062 210.15625 163.121094 210.472656 163.210938 210.792969 C 163.386719 211.433594 163.59375 212.058594 163.820312 212.679688 C 163.917969 212.957031 164.007812 213.234375 164.117188 213.503906 C 164.46875 214.371094 164.855469 215.226562 165.296875 216.046875 C 165.324219 216.09375 165.351562 216.132812 165.375 216.175781 C 165.804688 216.949219 166.277344 217.699219 166.785156 218.425781 C 166.964844 218.683594 167.160156 218.925781 167.351562 219.179688 C 167.730469 219.683594 168.128906 220.175781 168.550781 220.652344 C 168.78125 220.914062 169.019531 221.171875 169.261719 221.425781 C 169.425781 221.59375 169.570312 221.777344 169.738281 221.941406 C 169.710938 221.953125 169.6875 221.964844 169.667969 221.976562 C 169.492188 222.058594 169.335938 222.15625 169.164062 222.242188 C 167.929688 222.839844 166.730469 223.492188 165.566406 224.199219 C 165.125 224.46875 164.703125 224.765625 164.273438 225.054688 C 163.40625 225.628906 162.554688 226.226562 161.734375 226.859375 C 161.285156 227.210938 160.847656 227.574219 160.410156 227.941406 C 159.640625 228.589844 158.898438 229.273438 158.175781 229.972656 C 157.78125 230.359375 157.386719 230.738281 157.003906 231.140625 C 156.226562 231.957031 155.5 232.816406 154.792969 233.695312 C 154.53125 234.023438 154.25 234.324219 154 234.65625 C 153.070312 235.886719 152.203125 237.164062 151.414062 238.492188 C 151.253906 238.761719 151.125 239.054688 150.96875 239.328125 C 150.359375 240.40625 149.789062 241.503906 149.277344 242.636719 C 149.054688 243.128906 148.863281 243.632812 148.660156 244.132812 C 148.421875 244.726562 148.144531 245.300781 147.929688 245.90625 L 109.316406 245.90625 Z M 223.605469 265.417969 L 151.128906 265.417969 L 151.128906 259.84375 C 151.128906 256.300781 151.632812 252.816406 152.628906 249.488281 C 153.046875 248.089844 153.550781 246.730469 154.125 245.410156 C 154.320312 244.960938 154.570312 244.539062 154.785156 244.097656 C 155.195312 243.25 155.597656 242.390625 156.070312 241.582031 C 156.363281 241.082031 156.707031 240.621094 157.019531 240.140625 C 157.484375 239.429688 157.929688 238.707031 158.441406 238.03125 C 158.808594 237.542969 159.226562 237.097656 159.613281 236.628906 C 160.132812 236.007812 160.640625 235.378906 161.199219 234.792969 C 161.636719 234.34375 162.109375 233.929688 162.566406 233.5 C 163.140625 232.960938 163.707031 232.40625 164.316406 231.90625 C 164.8125 231.5 165.339844 231.132812 165.855469 230.753906 C 166.484375 230.292969 167.101562 229.820312 167.761719 229.398438 C 168.308594 229.046875 168.890625 228.738281 169.457031 228.414062 C 170.128906 228.03125 170.796875 227.644531 171.5 227.304688 C 172.097656 227.015625 172.71875 226.765625 173.335938 226.507812 C 173.863281 226.285156 174.398438 226.070312 174.945312 225.871094 C 175.167969 226 175.398438 226.101562 175.625 226.21875 C 175.9375 226.386719 176.25 226.550781 176.570312 226.703125 C 177.066406 226.945312 177.570312 227.15625 178.078125 227.363281 C 178.394531 227.488281 178.707031 227.621094 179.023438 227.734375 C 179.585938 227.929688 180.15625 228.09375 180.730469 228.25 C 181.007812 228.328125 181.277344 228.417969 181.554688 228.484375 C 182.410156 228.683594 183.277344 228.84375 184.152344 228.953125 C 185.121094 229.105469 186.203125 229.179688 187.367188 229.179688 C 188.53125 229.179688 189.613281 229.105469 190.496094 228.964844 C 191.390625 228.855469 192.273438 228.691406 193.144531 228.488281 C 193.429688 228.421875 193.707031 228.328125 193.992188 228.25 C 194.566406 228.09375 195.136719 227.933594 195.695312 227.734375 C 196.023438 227.617188 196.347656 227.480469 196.671875 227.355469 C 197.171875 227.152344 197.667969 226.945312 198.152344 226.710938 C 198.480469 226.554688 198.808594 226.382812 199.128906 226.210938 C 199.351562 226.09375 199.578125 225.992188 199.796875 225.867188 C 200.335938 226.066406 200.867188 226.277344 201.394531 226.5 C 202.015625 226.761719 202.644531 227.007812 203.246094 227.304688 C 203.941406 227.640625 204.605469 228.027344 205.269531 228.40625 C 205.84375 228.730469 206.429688 229.042969 206.984375 229.398438 C 207.636719 229.816406 208.25 230.285156 208.871094 230.742188 C 209.390625 231.128906 209.925781 231.496094 210.425781 231.910156 C 211.03125 232.40625 211.589844 232.953125 212.164062 233.492188 C 212.625 233.925781 213.105469 234.339844 213.542969 234.796875 C 214.097656 235.375 214.597656 236 215.113281 236.617188 C 215.511719 237.089844 215.929688 237.542969 216.300781 238.03125 C 216.804688 238.699219 217.246094 239.410156 217.703125 240.113281 C 218.023438 240.601562 218.375 241.074219 218.671875 241.585938 C 219.132812 242.375 219.523438 243.214844 219.929688 244.046875 C 220.152344 244.503906 220.414062 244.945312 220.617188 245.417969 C 221.160156 246.671875 221.632812 247.964844 222.035156 249.289062 C 222.058594 249.359375 222.089844 249.421875 222.109375 249.492188 C 223.101562 252.816406 223.605469 256.300781 223.605469 259.84375 Z M 265.417969 245.90625 L 226.800781 245.90625 C 226.585938 245.292969 226.308594 244.71875 226.066406 244.125 C 225.867188 243.628906 225.675781 243.125 225.457031 242.640625 C 224.941406 241.5 224.367188 240.394531 223.753906 239.3125 C 223.601562 239.042969 223.476562 238.757812 223.316406 238.492188 C 222.527344 237.160156 221.660156 235.882812 220.730469 234.652344 C 220.484375 234.324219 220.203125 234.019531 219.945312 233.699219 C 219.238281 232.816406 218.507812 231.953125 217.730469 231.132812 C 217.351562 230.734375 216.953125 230.355469 216.558594 229.972656 C 215.835938 229.265625 215.09375 228.589844 214.324219 227.9375 C 213.886719 227.570312 213.445312 227.207031 212.996094 226.855469 C 212.175781 226.21875 211.324219 225.621094 210.457031 225.046875 C 210.027344 224.761719 209.609375 224.464844 209.164062 224.191406 C 208.003906 223.480469 206.800781 222.832031 205.566406 222.234375 C 205.398438 222.152344 205.238281 222.050781 205.066406 221.972656 C 205.039062 221.960938 205.019531 221.945312 204.996094 221.933594 C 205.167969 221.765625 205.320312 221.574219 205.488281 221.398438 C 205.71875 221.164062 205.9375 220.921875 206.15625 220.675781 C 206.597656 220.179688 207.011719 219.667969 207.40625 219.140625 C 207.585938 218.90625 207.769531 218.679688 207.9375 218.4375 C 208.464844 217.6875 208.953125 216.914062 209.394531 216.113281 C 209.40625 216.09375 209.417969 216.074219 209.429688 216.054688 C 209.878906 215.226562 210.265625 214.371094 210.621094 213.496094 C 210.726562 213.234375 210.816406 212.960938 210.914062 212.691406 C 211.140625 212.066406 211.347656 211.433594 211.527344 210.789062 C 211.613281 210.472656 211.695312 210.15625 211.769531 209.835938 C 211.917969 209.1875 212.042969 208.53125 212.144531 207.871094 C 212.1875 207.574219 212.242188 207.285156 212.277344 206.984375 C 212.386719 206.03125 212.453125 205.066406 212.453125 204.09375 C 212.453125 203.039062 212.378906 201.992188 212.25 200.960938 C 212.207031 200.617188 212.128906 200.289062 212.074219 199.953125 C 211.957031 199.265625 211.839844 198.582031 211.667969 197.914062 C 211.570312 197.523438 211.445312 197.152344 211.328125 196.769531 C 211.144531 196.171875 210.957031 195.578125 210.730469 195.003906 C 210.578125 194.613281 210.410156 194.242188 210.238281 193.867188 C 210.105469 193.574219 209.996094 193.261719 209.851562 192.972656 C 209.894531 192.945312 209.933594 192.914062 209.980469 192.886719 C 210.941406 192.28125 211.9375 191.730469 212.953125 191.21875 C 213.210938 191.089844 213.476562 190.980469 213.738281 190.855469 C 214.535156 190.480469 215.339844 190.136719 216.164062 189.820312 C 216.347656 189.746094 216.535156 189.679688 216.726562 189.609375 C 217.039062 189.792969 217.378906 189.945312 217.707031 190.113281 C 217.964844 190.246094 218.214844 190.382812 218.480469 190.507812 C 219.351562 190.917969 220.246094 191.300781 221.191406 191.625 C 221.59375 191.761719 222.003906 191.890625 222.285156 191.957031 C 223.21875 192.234375 224.0625 192.425781 224.714844 192.503906 C 225.046875 192.582031 225.367188 192.628906 225.691406 192.671875 L 225.71875 192.660156 C 226.097656 192.753906 226.484375 192.808594 226.867188 192.824219 C 227.152344 192.855469 227.425781 192.886719 227.597656 192.878906 C 228.121094 192.914062 228.648438 192.941406 229.179688 192.941406 C 229.589844 192.941406 229.992188 192.871094 230.402344 192.851562 C 230.914062 192.828125 231.421875 192.796875 231.929688 192.742188 C 232.621094 192.667969 233.292969 192.550781 233.972656 192.421875 C 234.496094 192.320312 235.015625 192.210938 235.53125 192.078125 C 236.164062 191.910156 236.789062 191.707031 237.410156 191.488281 C 237.941406 191.304688 238.46875 191.113281 238.984375 190.890625 C 239.566406 190.644531 240.128906 190.359375 240.6875 190.066406 C 241.011719 189.898438 241.351562 189.777344 241.664062 189.59375 C 255.925781 194.808594 265.417969 208.316406 265.417969 223.605469 Z M 265.417969 245.90625 " fill-opacity="1" fill-rule="nonzero"/></g></svg>