<svg xmlns="http://www.w3.org/2000/svg" xmlns:xlink="http://www.w3.org/1999/xlink" width="500" zoomAndPan="magnify" viewBox="0 0 375 374.999991" height="500" preserveAspectRatio="xMidYMid meet" version="1.0"><defs><clipPath id="ab217f7436"><path d="M 4 56.484375 L 370.6875 56.484375 L 370.6875 318.234375 L 4 318.234375 Z M 4 56.484375 " clip-rule="nonzero"/></clipPath></defs><g clip-path="url(#ab217f7436)"><path fill="#d8d3cb" d="M 43.339844 56.484375 C 21.652344 56.484375 4.074219 74.035156 4.074219 95.746094 C 4.558594 155.28125 4.074219 218.296875 4.074219 278.96875 C 4.074219 299.867188 20.328125 316.777344 40.886719 318.027344 L 332.925781 318.234375 C 353.863281 317.386719 370.554688 300.140625 370.554688 278.972656 L 370.554688 89 C 367.378906 70.488281 351.304688 56.484375 331.902344 56.484375 C 235.765625 56.527344 139.511719 56.484375 43.339844 56.484375 Z M 42.726562 77.136719 L 333.128906 77.136719 L 192.628906 217.625 C 190.066406 220.1875 185.988281 220.1875 183.425781 217.625 L 42.722656 77.136719 Z M 350.921875 87.15625 L 350.921875 277.539062 C 350.921875 288.882812 346.835938 295.289062 338.652344 297.582031 L 239.667969 198.402344 L 350.921875 87.160156 Z M 25.960938 87.972656 L 135.375 197.378906 L 35.371094 297.375 C 28.523438 295.0625 26.140625 289.550781 25.960938 282.035156 Z M 149.28125 211.074219 L 183.433594 245.429688 C 185.996094 247.992188 190.074219 247.992188 192.636719 245.429688 L 225.765625 212.300781 L 312.074219 298.601562 L 61.753906 298.601562 L 149.285156 211.078125 Z M 149.28125 211.074219 " fill-opacity="1" fill-rule="nonzero"/></g></svg>