<svg xmlns="http://www.w3.org/2000/svg" xmlns:xlink="http://www.w3.org/1999/xlink" width="500" zoomAndPan="magnify" viewBox="0 0 375 374.999991" height="500" preserveAspectRatio="xMidYMid meet" version="1.0"><defs><clipPath id="b2816bc686"><path d="M 6.777344 0 L 368.277344 0 L 368.277344 375 L 6.777344 375 Z M 6.777344 0 " clip-rule="nonzero"/></clipPath></defs><path fill="#d8d3cb" d="M 256.511719 31.523438 L 106.128906 31.523438 C 56.324219 31.523438 15.753906 72.09375 15.753906 121.898438 L 15.753906 272.28125 C 15.753906 322.082031 56.324219 362.65625 106.128906 362.65625 L 256.511719 362.65625 C 306.316406 362.65625 346.886719 322.082031 346.886719 272.28125 L 346.886719 122.140625 C 346.886719 72.09375 306.316406 31.523438 256.511719 31.523438 Z M 318.464844 272.523438 C 318.464844 306.777344 290.765625 334.472656 256.511719 334.472656 L 106.128906 334.472656 C 71.875 334.472656 43.9375 306.777344 43.9375 272.523438 L 43.9375 122.140625 C 43.9375 87.882812 71.875 59.945312 106.128906 59.945312 L 256.511719 59.945312 C 290.765625 59.945312 318.464844 87.640625 318.464844 122.140625 Z M 318.464844 272.523438 " fill-opacity="1" fill-rule="nonzero"/><path fill="#d8d3cb" d="M 291.980469 106.589844 C 291.980469 117.765625 282.992188 127 271.574219 127 C 260.398438 127 251.167969 118.011719 251.167969 106.589844 C 251.167969 95.417969 260.15625 86.183594 271.574219 86.183594 C 282.992188 86.425781 291.980469 95.417969 291.980469 106.589844 Z M 291.980469 106.589844 " fill-opacity="1" fill-rule="nonzero"/><path fill="#d8d3cb" d="M 181.199219 112.90625 C 134.796875 112.90625 96.898438 150.808594 96.898438 197.210938 C 96.898438 243.613281 134.796875 281.511719 181.199219 281.511719 C 227.601562 281.511719 265.5 243.613281 265.5 197.210938 C 265.5 150.808594 227.84375 112.90625 181.199219 112.90625 Z M 181.199219 253.085938 C 150.34375 253.085938 125.320312 228.0625 125.320312 197.210938 C 125.320312 166.355469 150.34375 141.332031 181.199219 141.332031 C 212.054688 141.332031 237.078125 166.355469 237.078125 197.210938 C 237.078125 228.0625 212.054688 253.085938 181.199219 253.085938 Z M 181.199219 253.085938 " fill-opacity="1" fill-rule="nonzero"/><g clip-path="url(#b2816bc686)"><path fill="#d8d3cb" d="M 181.199219 485.585938 C 22.3125 485.585938 -107.175781 356.339844 -107.175781 197.210938 C -107.175781 38.324219 22.3125 -91.164062 181.199219 -91.164062 C 340.328125 -91.164062 469.574219 38.324219 469.574219 197.210938 C 469.574219 356.339844 340.328125 485.585938 181.199219 485.585938 Z M 181.199219 -75.375 C 30.816406 -75.375 -91.382812 46.828125 -91.382812 197.210938 C -91.382812 347.59375 30.816406 469.792969 181.199219 469.792969 C 331.582031 469.792969 453.78125 347.59375 453.78125 197.210938 C 453.78125 46.828125 331.582031 -75.375 181.199219 -75.375 Z M 181.199219 -75.375 " fill-opacity="1" fill-rule="nonzero"/></g></svg>