<svg xmlns="http://www.w3.org/2000/svg" xmlns:xlink="http://www.w3.org/1999/xlink" width="500" zoomAndPan="magnify" viewBox="0 0 375 374.999991" height="500" preserveAspectRatio="xMidYMid meet" version="1.0"><path fill="#cbbb26" d="M 179.996094 374.996094 L 179.933594 367.496094 L 187.433594 367.433594 L 187.496094 374.933594 M 179.871094 359.996094 L 179.808594 352.492188 L 187.308594 352.429688 L 187.371094 359.933594 M 179.746094 344.992188 L 179.679688 337.492188 L 187.179688 337.429688 L 187.246094 344.929688 M 179.617188 329.992188 L 179.554688 322.492188 L 187.054688 322.425781 L 187.117188 329.929688 M 179.492188 314.988281 L 179.429688 307.488281 L 186.929688 307.425781 L 186.992188 314.925781 M 179.367188 299.988281 L 179.300781 292.488281 L 186.800781 292.421875 L 186.867188 299.925781 M 179.238281 284.984375 L 179.175781 277.484375 L 186.675781 277.421875 L 186.738281 284.921875 M 179.113281 269.984375 L 179.050781 262.484375 L 186.550781 262.417969 L 186.613281 269.921875 M 178.988281 254.980469 L 178.925781 247.480469 L 186.421875 247.417969 L 186.488281 254.917969 M 178.859375 239.980469 L 178.796875 232.480469 L 186.296875 232.417969 L 186.359375 239.917969 M 178.734375 224.976562 L 178.671875 217.476562 L 186.171875 217.414062 L 186.234375 224.914062 M 178.609375 209.976562 L 178.546875 202.476562 L 186.046875 202.414062 L 186.109375 209.914062 M 178.480469 194.976562 L 178.417969 187.472656 L 185.917969 187.410156 L 185.980469 194.910156 M 178.355469 179.972656 L 178.292969 172.472656 L 185.792969 172.410156 L 185.855469 179.910156 M 178.230469 164.972656 L 178.167969 157.46875 L 185.667969 157.40625 L 185.730469 164.90625 M 178.105469 149.96875 L 178.039062 142.46875 L 185.539062 142.40625 L 185.601562 149.90625 M 177.976562 134.96875 L 177.914062 127.464844 L 185.414062 127.402344 L 185.476562 134.90625 M 177.851562 119.964844 L 177.789062 112.464844 L 185.289062 112.402344 L 185.351562 119.902344 M 177.726562 104.964844 L 177.660156 97.464844 L 185.160156 97.398438 L 185.226562 104.902344 M 177.597656 89.960938 L 177.535156 82.460938 L 185.035156 82.398438 L 185.097656 89.898438 M 177.472656 74.960938 L 177.410156 67.460938 L 184.910156 67.394531 L 184.972656 74.898438 M 177.347656 59.957031 L 177.28125 52.457031 L 184.78125 52.394531 L 184.847656 59.894531 M 177.21875 44.957031 L 177.15625 37.457031 L 184.65625 37.394531 L 184.71875 44.894531 M 177.09375 29.953125 L 177.03125 22.453125 L 184.53125 22.390625 L 184.59375 29.890625 M 176.96875 14.953125 L 176.90625 7.453125 L 184.402344 7.390625 L 184.46875 14.890625 " fill-opacity="1" fill-rule="nonzero"/></svg>