<svg xmlns="http://www.w3.org/2000/svg" xmlns:xlink="http://www.w3.org/1999/xlink" width="500" zoomAndPan="magnify" viewBox="0 0 375 374.999991" height="500" preserveAspectRatio="xMidYMid meet" version="1.0"><defs><clipPath id="0510357bef"><path d="M 62.90625 17.460938 L 311.90625 17.460938 L 311.90625 357.210938 L 62.90625 357.210938 Z M 62.90625 17.460938 " clip-rule="nonzero"/></clipPath></defs><g clip-path="url(#0510357bef)"><path fill="#d8d3cb" d="M 187.40625 17.601562 C 118.695312 17.601562 62.90625 73.375 62.90625 142.074219 C 62.90625 162.160156 73.378906 189.984375 88.667969 218.894531 C 122.386719 282.683594 178.578125 352.828125 178.578125 352.828125 C 180.71875 355.507812 183.96875 357.070312 187.40625 357.070312 C 190.847656 357.070312 194.097656 355.507812 196.234375 352.828125 C 196.234375 352.828125 252.429688 282.683594 286.148438 218.894531 C 301.4375 189.984375 311.90625 162.160156 311.90625 142.074219 C 311.90625 73.375 256.121094 17.601562 187.40625 17.601562 Z M 187.40625 40.234375 C 243.625 40.234375 289.273438 85.871094 289.273438 142.074219 C 289.273438 159.464844 279.367188 183.285156 266.136719 208.328125 C 241.394531 255.105469 204.226562 305.390625 187.40625 327.34375 C 170.589844 305.390625 133.421875 255.105469 108.679688 208.328125 C 95.449219 183.285156 85.542969 159.464844 85.542969 142.074219 C 85.542969 85.871094 131.191406 40.234375 187.40625 40.234375 Z M 187.40625 62.863281 C 149.933594 62.863281 119.5 93.292969 119.5 130.757812 C 119.5 168.222656 149.933594 198.652344 187.40625 198.652344 C 224.882812 198.652344 255.316406 168.222656 255.316406 130.757812 C 255.316406 93.292969 224.882812 62.863281 187.40625 62.863281 Z M 187.40625 85.496094 C 212.398438 85.496094 232.679688 105.773438 232.679688 130.757812 C 232.679688 155.742188 212.398438 176.019531 187.40625 176.019531 C 162.417969 176.019531 142.136719 155.742188 142.136719 130.757812 C 142.136719 105.773438 162.417969 85.496094 187.40625 85.496094 Z M 187.40625 85.496094 " fill-opacity="1" fill-rule="evenodd"/></g></svg>