<svg xmlns="http://www.w3.org/2000/svg" xmlns:xlink="http://www.w3.org/1999/xlink" width="500" zoomAndPan="magnify" viewBox="0 0 375 374.999991" height="500" preserveAspectRatio="xMidYMid meet" version="1.0"><defs><clipPath id="485b3632f3"><path d="M 25 18.75 L 358 18.75 L 358 356.25 L 25 356.25 Z M 25 18.75 " clip-rule="nonzero"/></clipPath></defs><g clip-path="url(#485b3632f3)"><path fill="#d8d3cb" d="M 25.097656 356.25 L 58.078125 266.984375 C 16.851562 202.53125 24.964844 118.324219 78.164062 65.113281 C 108.019531 35.246094 147.988281 18.75 190.679688 18.75 C 234.902344 18.75 276.730469 36.242188 308.449219 67.90625 C 339.507812 98.96875 356.929688 140.007812 357.527344 183.507812 C 358.058594 227.144531 341.699219 267.917969 311.242188 298.316406 C 281.386719 328.179688 241.417969 344.675781 198.726562 344.675781 C 167.738281 344.675781 137.613281 335.960938 111.214844 319.601562 Z M 112.144531 294.457031 C 115.203125 294.457031 118.328125 295.320312 120.988281 297.117188 C 144.261719 312.484375 171.195312 320.53125 198.859375 320.53125 C 235.167969 320.53125 269.082031 306.628906 294.351562 281.285156 C 320.089844 255.546875 333.988281 220.957031 333.519531 183.90625 C 333.054688 146.726562 318.09375 111.539062 291.558594 85 C 264.429688 57.859375 228.652344 43.027344 190.8125 43.027344 C 154.503906 43.027344 120.589844 56.929688 95.320312 82.273438 C 49.367188 128.234375 43.117188 201.734375 80.425781 257.074219 C 83.351562 261.332031 83.949219 266.785156 82.21875 271.640625 L 67.191406 312.214844 L 105.894531 295.789062 C 107.820312 294.921875 110.015625 294.457031 112.144531 294.457031 Z M 246.074219 283.949219 C 215.152344 283.949219 180.4375 268.183594 149.648438 240.3125 L 149.316406 240.445312 L 143.132812 234.261719 C 111.679688 201.933594 93.65625 164.484375 93.65625 131.558594 C 93.65625 118.191406 100.242188 104.289062 112.210938 92.382812 C 120.390625 84.269531 132.957031 75.554688 143.664062 75.554688 C 160.089844 75.554688 165.210938 84.734375 170.199219 93.578125 C 171.328125 95.574219 172.59375 97.835938 174.1875 100.496094 C 174.984375 101.894531 176.183594 103.691406 177.578125 105.753906 L 177.644531 105.820312 C 185.757812 118.191406 194.203125 131.09375 189.550781 143.132812 C 186.425781 151.183594 179.109375 157.035156 172.660156 162.222656 C 172.125 162.691406 171.195312 163.355469 170.332031 164.152344 C 172.992188 169.40625 179.109375 178.386719 189.285156 188.5625 C 199.390625 198.675781 208.4375 204.792969 213.6875 207.453125 C 214.421875 206.589844 215.152344 205.660156 215.550781 205.125 C 220.804688 198.609375 226.65625 191.292969 234.703125 188.164062 C 237.03125 187.300781 239.558594 186.769531 242.085938 186.769531 C 251.195312 186.769531 260.238281 192.222656 272.007812 200.070312 C 273.9375 201.335938 275.867188 202.664062 277.328125 203.464844 C 279.988281 205.058594 282.25 206.390625 284.246094 207.453125 L 284.378906 207.519531 C 293.15625 212.441406 302.132812 217.5 302.132812 233.863281 C 302.132812 244.570312 293.421875 257.140625 285.308594 265.324219 C 273.339844 277.363281 259.441406 283.949219 246.074219 283.949219 Z M 159.027344 216.035156 L 160.289062 217.234375 C 188.019531 244.238281 219.339844 259.800781 246.074219 259.800781 C 261.167969 259.800781 276.863281 240.113281 277.925781 233.792969 C 277.925781 232.796875 277.859375 232.265625 277.792969 231.933594 C 276.929688 231.199219 274.402344 229.738281 272.40625 228.605469 L 272.273438 228.539062 C 270.082031 227.34375 267.6875 225.945312 264.695312 224.214844 C 262.832031 223.085938 260.703125 221.621094 258.578125 220.292969 C 255.449219 218.230469 246.207031 212.175781 242.484375 211.113281 C 240.289062 212.644531 236.632812 217.300781 234.304688 220.226562 C 228.785156 227.210938 225.726562 230.667969 221.535156 232.265625 L 219.273438 233.128906 L 216.882812 233.0625 C 200.65625 232.664062 178.578125 211.910156 172.261719 205.527344 C 165.875 199.140625 145.0625 177.125 144.730469 160.761719 L 144.664062 158.367188 L 145.527344 156.105469 C 147.121094 151.914062 150.648438 148.789062 157.695312 143.199219 C 160.621094 140.871094 165.210938 137.214844 166.808594 135.019531 C 165.808594 131.292969 159.757812 122.046875 157.628906 118.921875 L 157.5625 118.855469 C 156.101562 116.660156 154.835938 114.664062 153.707031 112.871094 C 151.84375 109.808594 150.582031 107.414062 149.382812 105.285156 C 148.1875 103.226562 146.722656 100.628906 145.992188 99.765625 C 145.660156 99.699219 145.128906 99.632812 144.0625 99.632812 C 137.679688 100.695312 117.996094 116.261719 117.996094 131.492188 C 117.730469 157.902344 132.757812 188.5625 159.027344 216.035156 Z M 277.859375 233.792969 Z M 143.863281 99.765625 Z M 143.863281 99.765625 " fill-opacity="1" fill-rule="nonzero"/></g></svg>