<svg xmlns="http://www.w3.org/2000/svg" xmlns:xlink="http://www.w3.org/1999/xlink" width="1080" zoomAndPan="magnify" viewBox="0 0 810 809.999993" height="1080" preserveAspectRatio="xMidYMid meet" version="1.0"><defs><clipPath id="8ed69bc987"><path d="M 117.976562 118 L 691.726562 118 L 691.726562 691.726562 L 117.976562 691.726562 Z M 117.976562 118 " clip-rule="nonzero"/></clipPath></defs><path fill="#000000" d="M 279.570312 372.589844 C 289.632812 380.023438 302.046875 383.3125 314.277344 382.5625 C 314.746094 382.5625 315.3125 382.5625 315.78125 382.46875 C 317.660156 382.28125 319.636719 381.996094 321.519531 381.621094 C 322.269531 381.433594 322.929688 381.339844 323.683594 381.152344 C 324.527344 380.960938 325.375 380.679688 326.222656 380.398438 C 326.03125 379.457031 325.9375 378.515625 325.65625 377.578125 C 325.65625 377.386719 325.65625 377.105469 325.5625 376.917969 C 324.527344 371.652344 323.777344 366.382812 323.777344 361.117188 C 323.777344 336.851562 334.6875 313.992188 353.027344 298.757812 C 343.339844 285.589844 327.632812 277.5 310.703125 277.5 C 281.730469 277.5 258.125 301.203125 258.125 330.265625 C 258.125 347.667969 266.589844 362.996094 279.664062 372.589844 Z M 279.570312 372.589844 " fill-opacity="1" fill-rule="nonzero"/><path fill="#000000" d="M 374.003906 403.722656 C 375.976562 405.136719 378.046875 406.453125 380.210938 407.582031 C 380.304688 407.582031 380.492188 407.675781 380.585938 407.769531 C 395.542969 415.386719 413.976562 415.386719 429.027344 407.769531 C 429.121094 407.769531 429.308594 407.675781 429.402344 407.582031 C 431.566406 406.453125 433.636719 405.136719 435.609375 403.722656 C 448.871094 394.128906 457.523438 378.707031 457.523438 361.117188 C 457.523438 332.054688 433.824219 308.351562 404.757812 308.351562 C 375.695312 308.351562 351.992188 332.054688 351.992188 361.117188 C 351.992188 378.609375 360.644531 394.128906 373.910156 403.722656 Z M 374.003906 403.722656 " fill-opacity="1" fill-rule="nonzero"/><path fill="#000000" d="M 333.464844 412.285156 C 334.59375 411.53125 335.722656 410.777344 336.945312 410.121094 C 337.695312 409.648438 338.449219 409.085938 339.296875 408.617188 C 338.730469 407.863281 338.261719 407.203125 337.789062 406.453125 C 336.566406 406.921875 335.25 407.203125 334.027344 407.488281 C 332.804688 407.863281 331.488281 408.238281 330.265625 408.617188 C 328.480469 409.085938 326.691406 409.367188 324.90625 409.648438 C 323.398438 409.933594 321.988281 410.214844 320.390625 410.402344 C 319.542969 410.496094 318.695312 410.402344 317.851562 410.589844 C 315.5 410.777344 313.148438 411.0625 310.703125 411.0625 C 301.578125 411.0625 292.738281 409.460938 284.554688 406.640625 C 284.367188 406.640625 284.175781 406.453125 283.988281 406.453125 C 281.636719 405.605469 279.285156 404.664062 277.03125 403.628906 C 276.183594 403.253906 275.429688 402.878906 274.679688 402.5 C 272.984375 401.65625 271.292969 400.714844 269.597656 399.773438 C 269.035156 399.398438 268.46875 399.210938 267.90625 398.832031 C 246.179688 405.605469 230.941406 425.921875 230.941406 449.15625 L 230.941406 482.542969 C 230.941406 493.171875 239.5 501.828125 250.128906 501.828125 L 296.6875 501.828125 L 296.6875 479.910156 C 296.6875 470.316406 298.570312 461.195312 301.671875 452.539062 C 301.671875 452.351562 301.765625 452.257812 301.859375 452.070312 C 304.210938 445.769531 307.222656 439.9375 310.984375 434.386719 C 311.265625 434.011719 311.453125 433.730469 311.738281 433.351562 C 314.089844 430.0625 316.628906 426.863281 319.449219 423.945312 C 319.636719 423.757812 319.824219 423.476562 320.109375 423.289062 C 321.519531 421.878906 322.929688 420.46875 324.433594 419.148438 C 325.09375 418.492188 325.84375 417.925781 326.597656 417.363281 C 328.855469 415.480469 331.300781 413.695312 333.746094 412.097656 Z M 333.464844 412.285156 " fill-opacity="1" fill-rule="nonzero"/><path fill="#000000" d="M 486.023438 361.117188 C 486.023438 366.382812 485.367188 371.652344 484.238281 376.917969 C 484.238281 377.105469 484.238281 377.386719 484.144531 377.578125 C 483.957031 378.515625 483.863281 379.457031 483.578125 380.398438 C 484.425781 380.679688 485.273438 380.960938 486.023438 381.152344 C 486.777344 381.339844 487.4375 381.527344 488.1875 381.621094 C 490.070312 381.996094 491.949219 382.28125 493.925781 382.46875 C 494.394531 382.46875 494.960938 382.46875 495.523438 382.5625 C 507.65625 383.3125 520.074219 380.023438 530.136719 372.589844 C 543.117188 362.996094 551.675781 347.667969 551.675781 330.265625 C 551.675781 301.203125 528.070312 277.5 499.097656 277.5 C 482.074219 277.5 466.460938 285.589844 456.773438 298.757812 C 475.113281 313.992188 486.023438 336.851562 486.023438 361.117188 Z M 486.023438 361.117188 " fill-opacity="1" fill-rule="nonzero"/><g clip-path="url(#8ed69bc987)"><path fill="#000000" d="M 404.851562 118.261719 C 246.648438 118.261719 117.976562 246.929688 117.976562 405.136719 C 117.976562 563.339844 246.648438 692.011719 404.851562 692.011719 C 563.058594 692.011719 691.726562 563.339844 691.726562 405.136719 C 691.726562 246.929688 563.058594 118.261719 404.851562 118.261719 Z M 607.078125 482.542969 C 607.078125 508.785156 585.820312 530.042969 559.671875 530.042969 L 509.820312 530.042969 C 503.050781 548.007812 485.742188 560.894531 465.425781 560.894531 L 344.1875 560.894531 C 323.871094 560.894531 306.65625 548.007812 299.792969 530.042969 L 249.941406 530.042969 C 223.792969 530.042969 202.535156 508.691406 202.535156 482.542969 L 202.535156 449.15625 C 202.535156 418.773438 219.652344 391.589844 245.332031 377.859375 C 235.550781 364.503906 229.71875 348.136719 229.71875 330.359375 C 229.71875 285.683594 265.929688 249.375 310.515625 249.375 C 337.789062 249.375 362.714844 263.109375 377.484375 285.023438 C 386.042969 281.921875 395.164062 280.226562 404.757812 280.226562 C 414.351562 280.226562 423.476562 282.015625 432.035156 285.023438 C 446.804688 263.015625 471.726562 249.375 499.003906 249.375 C 543.585938 249.375 579.800781 285.683594 579.800781 330.359375 C 579.800781 348.136719 573.96875 364.503906 564.1875 377.859375 C 589.863281 391.683594 606.984375 418.773438 606.984375 449.152344 L 606.984375 482.542969 Z M 607.078125 482.542969 " fill-opacity="1" fill-rule="nonzero"/></g><path fill="#000000" d="M 474.457031 448.683594 C 472.949219 446.707031 471.351562 444.828125 469.660156 443.132812 C 469.375 442.851562 469.09375 442.570312 468.8125 442.289062 C 467.214844 440.78125 465.519531 439.277344 463.734375 437.960938 C 463.167969 437.585938 462.605469 437.113281 462.039062 436.738281 C 460.347656 435.609375 458.652344 434.574219 456.867188 433.636719 C 456.019531 433.164062 455.175781 432.789062 454.328125 432.410156 C 452.632812 431.660156 450.941406 430.90625 449.25 430.34375 C 448.777344 430.15625 448.214844 430.0625 447.742188 429.871094 C 447.179688 430.25 446.519531 430.4375 445.957031 430.8125 C 443.792969 432.035156 441.628906 433.164062 439.464844 434.292969 C 438.808594 434.574219 438.054688 434.953125 437.398438 435.328125 C 429.589844 438.714844 421.125 440.972656 412.191406 441.722656 C 412.097656 441.722656 412 441.722656 411.90625 441.722656 L 410.402344 441.910156 C 409.746094 441.910156 409.085938 442.007812 408.617188 442.007812 C 408.144531 442.007812 407.769531 442.007812 407.394531 441.910156 C 406.546875 441.910156 405.792969 442.007812 404.949219 442.007812 C 404.101562 442.007812 403.347656 441.910156 402.5 441.910156 C 402.125 441.910156 401.65625 442.007812 401.277344 442.007812 C 400.808594 442.007812 400.152344 442.007812 399.492188 441.910156 C 399.492188 441.910156 399.023438 441.910156 399.023438 441.910156 L 398.082031 441.910156 C 398.082031 441.910156 397.894531 441.722656 397.800781 441.722656 C 388.957031 440.972656 380.492188 438.714844 372.589844 435.328125 C 371.839844 435.046875 371.179688 434.667969 370.523438 434.292969 C 368.265625 433.257812 366.101562 432.128906 364.03125 430.8125 C 363.46875 430.4375 362.808594 430.25 362.246094 429.871094 C 361.773438 430.0625 361.210938 430.15625 360.742188 430.34375 C 358.953125 430.90625 357.261719 431.660156 355.660156 432.410156 C 354.816406 432.789062 353.96875 433.257812 353.121094 433.636719 C 351.335938 434.574219 349.546875 435.609375 347.949219 436.738281 C 347.382812 437.113281 346.820312 437.585938 346.253906 437.960938 C 344.46875 439.277344 342.777344 440.6875 341.175781 442.289062 C 340.894531 442.570312 340.613281 442.851562 340.328125 443.132812 C 338.636719 444.921875 336.945312 446.707031 335.53125 448.683594 C 335.53125 448.683594 335.53125 448.777344 335.4375 448.871094 C 328.949219 457.714844 325.1875 468.53125 325.1875 480.003906 L 325.1875 513.394531 C 325.1875 524.023438 333.839844 532.675781 344.46875 532.675781 L 465.707031 532.675781 C 476.335938 532.675781 484.988281 524.023438 484.988281 513.394531 L 484.988281 480.003906 C 484.988281 468.4375 481.226562 457.621094 474.738281 448.871094 C 474.738281 448.871094 474.738281 448.777344 474.644531 448.683594 Z M 474.457031 448.683594 " fill-opacity="1" fill-rule="nonzero"/><path fill="#000000" d="M 541.894531 398.832031 C 541.332031 399.210938 540.765625 399.398438 540.203125 399.773438 C 538.601562 400.714844 536.910156 401.65625 535.214844 402.5 C 534.371094 402.878906 533.617188 403.253906 532.769531 403.628906 C 530.515625 404.664062 528.257812 405.605469 525.90625 406.453125 C 525.71875 406.453125 525.433594 406.640625 525.246094 406.734375 C 517.0625 409.554688 508.316406 411.15625 499.097656 411.15625 C 496.558594 411.15625 494.113281 410.871094 491.574219 410.683594 C 490.820312 410.683594 490.164062 410.683594 489.410156 410.589844 C 487.90625 410.402344 486.402344 410.121094 484.800781 409.839844 C 483.015625 409.554688 481.226562 409.273438 479.535156 408.804688 C 478.21875 408.523438 476.996094 408.050781 475.679688 407.675781 C 474.457031 407.296875 473.140625 407.015625 471.917969 406.640625 C 471.445312 407.394531 470.882812 408.050781 470.410156 408.804688 C 471.257812 409.273438 471.917969 409.839844 472.761719 410.308594 C 473.890625 410.96875 475.113281 411.71875 476.242188 412.472656 C 478.78125 414.070312 481.132812 415.859375 483.390625 417.738281 C 484.144531 418.304688 484.800781 418.867188 485.554688 419.527344 C 487.058594 420.84375 488.46875 422.253906 489.882812 423.664062 C 490.070312 423.851562 490.257812 424.136719 490.539062 424.324219 C 493.359375 427.238281 495.902344 430.4375 498.253906 433.730469 C 498.535156 434.105469 498.722656 434.386719 499.003906 434.761719 C 502.765625 440.21875 505.777344 446.144531 508.128906 452.445312 C 508.128906 452.632812 508.222656 452.726562 508.316406 452.917969 C 511.421875 461.570312 513.300781 470.695312 513.300781 480.289062 L 513.300781 502.203125 L 559.859375 502.203125 C 570.394531 502.203125 579.046875 493.550781 579.046875 482.921875 L 579.046875 449.53125 C 579.046875 426.296875 563.808594 405.980469 542.082031 399.210938 Z M 541.894531 398.832031 " fill-opacity="1" fill-rule="nonzero"/></svg>