<svg xmlns="http://www.w3.org/2000/svg" xmlns:xlink="http://www.w3.org/1999/xlink" width="500" zoomAndPan="magnify" viewBox="0 0 375 374.999991" height="500" preserveAspectRatio="xMidYMid meet" version="1.0"><defs><g/><clipPath id="9ca267fc3e"><path d="M 50.71875 50.71875 L 324.28125 50.71875 L 324.28125 324.28125 L 50.71875 324.28125 Z M 50.71875 50.71875 " clip-rule="nonzero"/></clipPath><clipPath id="18536c95aa"><path d="M 187.5 50.71875 C 111.957031 50.71875 50.71875 111.957031 50.71875 187.5 C 50.71875 263.042969 111.957031 324.28125 187.5 324.28125 C 263.042969 324.28125 324.28125 263.042969 324.28125 187.5 C 324.28125 111.957031 263.042969 50.71875 187.5 50.71875 " clip-rule="nonzero"/></clipPath><clipPath id="cbd3a8df16"><path d="M 155 233 L 220 233 L 220 275.910156 L 155 275.910156 Z M 155 233 " clip-rule="nonzero"/></clipPath><clipPath id="18d3590a5d"><path d="M 170 233 L 175 233 L 175 275.910156 L 170 275.910156 Z M 170 233 " clip-rule="nonzero"/></clipPath><clipPath id="6e702932c6"><path d="M 201 233 L 206 233 L 206 275.910156 L 201 275.910156 Z M 201 233 " clip-rule="nonzero"/></clipPath><clipPath id="accbf6672a"><path d="M 174 98.910156 L 201 98.910156 L 201 125 L 174 125 Z M 174 98.910156 " clip-rule="nonzero"/></clipPath><clipPath id="4249ea6a4e"><path d="M 104.335938 180 L 164 180 L 164 208 L 104.335938 208 Z M 104.335938 180 " clip-rule="nonzero"/></clipPath><clipPath id="7ef1358a5e"><path d="M 211 180 L 270.835938 180 L 270.835938 208 L 211 208 Z M 211 180 " clip-rule="nonzero"/></clipPath></defs><g clip-path="url(#9ca267fc3e)"><g clip-path="url(#18536c95aa)"><path fill="#222222" d="M 50.71875 50.71875 L 324.28125 50.71875 L 324.28125 324.28125 L 50.71875 324.28125 Z M 50.71875 50.71875 " fill-opacity="1" fill-rule="nonzero"/></g></g><g fill="#ffffff" fill-opacity="1"><g transform="translate(187.486966, 180.467427)"><g/></g></g><g fill="#ffffff" fill-opacity="1"><g transform="translate(187.486966, 206.717425)"><g/></g></g><g clip-path="url(#cbd3a8df16)"><path fill="#ffffff" d="M 217.964844 275.902344 L 157.175781 275.902344 C 156.0625 275.902344 155.160156 275 155.160156 273.890625 L 155.160156 253.113281 C 155.160156 242.289062 163.984375 233.484375 174.832031 233.484375 L 179.140625 233.484375 C 180.25 233.484375 181.152344 234.386719 181.152344 235.496094 C 181.152344 239.097656 184.09375 242.03125 187.703125 242.03125 C 191.3125 242.03125 194.253906 239.097656 194.253906 235.496094 C 194.253906 234.386719 195.15625 233.484375 196.265625 233.484375 L 200.308594 233.484375 C 211.15625 233.484375 219.980469 242.292969 219.980469 253.113281 L 219.980469 273.890625 C 219.980469 275 219.082031 275.902344 217.964844 275.902344 Z M 159.191406 271.878906 L 215.953125 271.878906 L 215.953125 253.113281 C 215.953125 244.507812 208.9375 237.503906 200.3125 237.503906 L 198.09375 237.503906 C 197.148438 242.367188 192.847656 246.050781 187.707031 246.050781 C 182.566406 246.050781 178.265625 242.367188 177.316406 237.503906 L 174.835938 237.503906 C 166.210938 237.503906 159.195312 244.507812 159.195312 253.113281 L 159.195312 271.878906 Z M 159.191406 271.878906 " fill-opacity="1" fill-rule="nonzero"/></g><g clip-path="url(#18d3590a5d)"><path fill="#ffffff" d="M 172.035156 275.902344 C 170.921875 275.902344 170.019531 275 170.019531 273.890625 L 170.019531 235.71875 C 170.019531 234.609375 170.921875 233.710938 172.035156 233.710938 C 173.148438 233.710938 174.050781 234.609375 174.050781 235.71875 L 174.050781 273.890625 C 174.050781 275 173.148438 275.902344 172.035156 275.902344 Z M 172.035156 275.902344 " fill-opacity="1" fill-rule="nonzero"/></g><g clip-path="url(#6e702932c6)"><path fill="#ffffff" d="M 203.105469 275.902344 C 201.992188 275.902344 201.089844 275 201.089844 273.890625 L 201.089844 235.71875 C 201.089844 234.609375 201.992188 233.710938 203.105469 233.710938 C 204.21875 233.710938 205.121094 234.609375 205.121094 235.71875 L 205.121094 273.890625 C 205.121094 275 204.21875 275.902344 203.105469 275.902344 Z M 203.105469 275.902344 " fill-opacity="1" fill-rule="nonzero"/></g><path fill="#ffffff" d="M 187.570312 233.109375 C 184.695312 233.109375 181.828125 232.277344 179.320312 230.613281 C 176.054688 228.445312 168.796875 221.648438 171.9375 205.378906 C 172.117188 204.433594 172.949219 203.75 173.917969 203.75 L 201.21875 203.75 C 202.1875 203.75 203.015625 204.433594 203.199219 205.378906 C 206.339844 221.644531 199.085938 228.445312 195.816406 230.613281 C 193.3125 232.277344 190.445312 233.109375 187.570312 233.109375 Z M 175.617188 207.773438 C 174.285156 216.667969 176.460938 223.882812 181.554688 227.261719 C 185.265625 229.726562 189.875 229.726562 193.585938 227.261719 C 198.679688 223.878906 200.851562 216.664062 199.523438 207.773438 Z M 175.617188 207.773438 " fill-opacity="1" fill-rule="nonzero"/><path fill="#ffffff" d="M 179.136719 237.503906 C 178.023438 237.503906 177.121094 236.605469 177.121094 235.496094 L 177.121094 227.953125 C 177.121094 226.84375 178.023438 225.941406 179.136719 225.941406 C 180.246094 225.941406 181.148438 226.84375 181.148438 227.953125 L 181.148438 235.496094 C 181.148438 236.605469 180.25 237.503906 179.136719 237.503906 Z M 179.136719 237.503906 " fill-opacity="1" fill-rule="nonzero"/><path fill="#ffffff" d="M 196.234375 237.503906 C 195.121094 237.503906 194.21875 236.605469 194.21875 235.496094 L 194.21875 227.75 C 194.21875 226.640625 195.121094 225.738281 196.234375 225.738281 C 197.347656 225.738281 198.25 226.640625 198.25 227.75 L 198.25 235.496094 C 198.25 236.605469 197.347656 237.503906 196.234375 237.503906 Z M 196.234375 237.503906 " fill-opacity="1" fill-rule="nonzero"/><path fill="#ffffff" d="M 206.335938 201.453125 L 189.921875 201.453125 C 189.371094 201.453125 188.839844 201.226562 188.460938 200.828125 C 188.082031 200.429688 187.878906 199.886719 187.914062 199.335938 L 188.933594 180.914062 C 188.964844 180.339844 189.242188 179.804688 189.695312 179.445312 C 190.148438 179.089844 190.734375 178.945312 191.300781 179.046875 C 201.179688 180.839844 208.347656 189.417969 208.347656 199.449219 C 208.347656 200.558594 207.445312 201.453125 206.335938 201.453125 Z M 192.050781 197.433594 L 204.199219 197.433594 C 203.425781 190.988281 198.972656 185.582031 192.816406 183.566406 Z M 185.21875 201.453125 L 168.804688 201.453125 C 167.695312 201.453125 166.792969 200.554688 166.792969 199.445312 C 166.792969 189.410156 173.960938 180.832031 183.839844 179.042969 C 184.40625 178.945312 184.992188 179.089844 185.445312 179.441406 C 185.902344 179.800781 186.179688 180.335938 186.210938 180.910156 L 187.230469 199.332031 C 187.265625 199.882812 187.0625 200.421875 186.683594 200.824219 C 186.304688 201.226562 185.773438 201.453125 185.21875 201.453125 Z M 170.941406 197.433594 L 183.089844 197.433594 L 182.324219 183.566406 C 176.167969 185.582031 171.71875 190.992188 170.941406 197.433594 Z M 170.941406 197.433594 " fill-opacity="1" fill-rule="nonzero"/><path fill="#ffffff" d="M 189.917969 201.453125 L 185.214844 201.453125 C 184.148438 201.453125 183.261719 200.621094 183.207031 199.554688 L 182.148438 180.496094 C 182.097656 179.523438 182.453125 178.582031 183.148438 177.847656 C 183.949219 177 185.113281 176.515625 186.332031 176.515625 L 188.800781 176.515625 C 190.019531 176.515625 191.179688 177 191.984375 177.847656 C 192.683594 178.582031 193.039062 179.523438 192.988281 180.496094 L 191.929688 199.554688 C 191.875 200.621094 190.992188 201.453125 189.917969 201.453125 Z M 187.125 197.433594 L 188.015625 197.433594 L 188.953125 180.558594 C 188.914062 180.542969 188.863281 180.535156 188.808594 180.535156 L 186.339844 180.535156 C 186.285156 180.535156 186.234375 180.542969 186.195312 180.558594 Z M 187.125 197.433594 " fill-opacity="1" fill-rule="nonzero"/><path fill="#ffffff" d="M 194.292969 267.792969 L 180.847656 267.792969 C 179.734375 267.792969 178.832031 266.894531 178.832031 265.78125 L 178.832031 252.148438 C 178.832031 251.039062 179.734375 250.136719 180.847656 250.136719 L 194.292969 250.136719 C 195.40625 250.136719 196.308594 251.039062 196.308594 252.148438 L 196.308594 265.78125 C 196.308594 266.894531 195.40625 267.792969 194.292969 267.792969 Z M 182.863281 263.773438 L 192.277344 263.773438 L 192.277344 254.160156 L 182.863281 254.160156 Z M 182.863281 263.773438 " fill-opacity="1" fill-rule="nonzero"/><path fill="#ffffff" d="M 207.914062 207.773438 L 167.226562 207.773438 C 166.113281 207.773438 165.210938 206.871094 165.210938 205.761719 L 165.210938 199.445312 C 165.210938 198.332031 166.113281 197.433594 167.226562 197.433594 L 207.910156 197.433594 C 209.023438 197.433594 209.925781 198.332031 209.925781 199.445312 L 209.925781 205.761719 C 209.929688 206.871094 209.027344 207.773438 207.914062 207.773438 Z M 169.242188 203.75 L 205.894531 203.75 L 205.894531 201.453125 L 169.242188 201.453125 Z M 169.242188 203.75 " fill-opacity="1" fill-rule="nonzero"/><path fill="#ffffff" d="M 187.570312 180.535156 C 186.457031 180.535156 185.554688 179.636719 185.554688 178.527344 L 185.554688 122.417969 C 185.554688 121.308594 186.457031 120.40625 187.570312 120.40625 C 188.683594 120.40625 189.585938 121.308594 189.585938 122.417969 L 189.585938 178.527344 C 189.585938 179.636719 188.683594 180.535156 187.570312 180.535156 Z M 187.570312 180.535156 " fill-opacity="1" fill-rule="nonzero"/><g clip-path="url(#accbf6672a)"><path fill="#ffffff" d="M 187.570312 124.429688 C 180.523438 124.429688 174.78125 118.707031 174.78125 111.667969 C 174.78125 104.628906 180.515625 98.90625 187.570312 98.90625 C 194.617188 98.90625 200.359375 104.628906 200.359375 111.667969 C 200.359375 118.707031 194.617188 124.429688 187.570312 124.429688 Z M 187.570312 102.933594 C 182.742188 102.933594 178.8125 106.851562 178.8125 111.671875 C 178.8125 116.488281 182.742188 120.410156 187.570312 120.410156 C 192.398438 120.410156 196.328125 116.488281 196.328125 111.671875 C 196.328125 106.851562 192.398438 102.933594 187.570312 102.933594 Z M 187.570312 102.933594 " fill-opacity="1" fill-rule="nonzero"/></g><path fill="#ffffff" d="M 177.800781 118.210938 L 124.367188 118.210938 C 123.253906 118.210938 122.351562 117.308594 122.351562 116.199219 L 122.351562 107.140625 C 122.351562 106.027344 123.253906 105.128906 124.367188 105.128906 L 177.796875 105.128906 C 178.910156 105.128906 179.8125 106.027344 179.8125 107.140625 C 179.8125 108.25 178.910156 109.148438 177.796875 109.148438 L 126.382812 109.148438 L 126.382812 114.1875 L 177.796875 114.1875 C 178.910156 114.1875 179.8125 115.089844 179.8125 116.199219 C 179.8125 117.308594 178.914062 118.210938 177.800781 118.210938 Z M 177.800781 118.210938 " fill-opacity="1" fill-rule="nonzero"/><path fill="#ffffff" d="M 250.773438 118.210938 L 197.339844 118.210938 C 196.226562 118.210938 195.324219 117.308594 195.324219 116.199219 C 195.324219 115.089844 196.226562 114.1875 197.339844 114.1875 L 248.753906 114.1875 L 248.753906 109.148438 L 197.339844 109.148438 C 196.226562 109.148438 195.324219 108.25 195.324219 107.140625 C 195.324219 106.027344 196.226562 105.128906 197.339844 105.128906 L 250.769531 105.128906 C 251.882812 105.128906 252.785156 106.027344 252.785156 107.140625 L 252.785156 116.199219 C 252.789062 117.3125 251.886719 118.210938 250.773438 118.210938 Z M 250.773438 118.210938 " fill-opacity="1" fill-rule="nonzero"/><g clip-path="url(#4249ea6a4e)"><path fill="#ffffff" d="M 133.820312 207.878906 C 117.570312 207.878906 104.355469 196.289062 104.355469 182.050781 C 104.355469 180.9375 105.261719 180.039062 106.371094 180.039062 L 161.269531 180.039062 C 162.382812 180.039062 163.285156 180.9375 163.285156 182.050781 C 163.285156 196.289062 150.070312 207.878906 133.820312 207.878906 Z M 108.492188 184.058594 C 109.679688 195.144531 120.585938 203.855469 133.820312 203.855469 C 147.054688 203.855469 157.960938 195.144531 159.148438 184.058594 Z M 108.492188 184.058594 " fill-opacity="1" fill-rule="nonzero"/></g><path fill="#ffffff" d="M 152.882812 184.058594 C 152.007812 184.058594 151.203125 183.488281 150.949219 182.609375 L 133.820312 123.445312 L 116.695312 182.609375 C 116.382812 183.675781 115.265625 184.289062 114.199219 183.984375 C 113.128906 183.675781 112.515625 182.558594 112.820312 181.492188 L 131.886719 115.644531 C 132.136719 114.785156 132.925781 114.191406 133.820312 114.191406 C 134.714844 114.191406 135.511719 114.785156 135.753906 115.644531 L 154.820312 181.488281 C 155.132812 182.554688 154.515625 183.667969 153.445312 183.980469 C 153.257812 184.035156 153.070312 184.058594 152.882812 184.058594 Z M 152.882812 184.058594 " fill-opacity="1" fill-rule="nonzero"/><g clip-path="url(#7ef1358a5e)"><path fill="#ffffff" d="M 241.320312 207.878906 C 225.070312 207.878906 211.855469 196.289062 211.855469 182.050781 C 211.855469 180.9375 212.757812 180.039062 213.871094 180.039062 L 268.773438 180.039062 C 269.882812 180.039062 270.785156 180.9375 270.785156 182.050781 C 270.785156 196.289062 257.566406 207.878906 241.320312 207.878906 Z M 215.988281 184.058594 C 217.179688 195.144531 228.085938 203.855469 241.320312 203.855469 C 254.554688 203.855469 265.460938 195.144531 266.648438 184.058594 Z M 215.988281 184.058594 " fill-opacity="1" fill-rule="nonzero"/></g><path fill="#ffffff" d="M 260.382812 184.058594 C 259.507812 184.058594 258.699219 183.488281 258.445312 182.609375 L 241.320312 123.445312 L 224.191406 182.609375 C 223.882812 183.675781 222.765625 184.289062 221.695312 183.984375 C 220.628906 183.675781 220.011719 182.558594 220.320312 181.492188 L 239.382812 115.644531 C 239.632812 114.785156 240.425781 114.191406 241.320312 114.191406 C 242.214844 114.191406 243.007812 114.785156 243.253906 115.644531 L 262.320312 181.492188 C 262.628906 182.558594 262.011719 183.675781 260.941406 183.984375 C 260.757812 184.035156 260.566406 184.058594 260.382812 184.058594 Z M 260.382812 184.058594 " fill-opacity="1" fill-rule="nonzero"/></svg>