<svg xmlns="http://www.w3.org/2000/svg" xmlns:xlink="http://www.w3.org/1999/xlink" width="500" zoomAndPan="magnify" viewBox="0 0 375 374.999991" height="500" preserveAspectRatio="xMidYMid meet" version="1.0"><defs><g/><clipPath id="16fd5f7eac"><path d="M 50.71875 50.71875 L 324.28125 50.71875 L 324.28125 324.28125 L 50.71875 324.28125 Z M 50.71875 50.71875 " clip-rule="nonzero"/></clipPath><clipPath id="ac0a288ba0"><path d="M 187.5 50.71875 C 111.957031 50.71875 50.71875 111.957031 50.71875 187.5 C 50.71875 263.042969 111.957031 324.28125 187.5 324.28125 C 263.042969 324.28125 324.28125 263.042969 324.28125 187.5 C 324.28125 111.957031 263.042969 50.71875 187.5 50.71875 " clip-rule="nonzero"/></clipPath><clipPath id="60ac488930"><path d="M 104 108.710938 L 215 108.710938 L 215 254 L 104 254 Z M 104 108.710938 " clip-rule="nonzero"/></clipPath><clipPath id="759661ad4d"><path d="M 221 217 L 270 217 L 270 266.210938 L 221 266.210938 Z M 221 217 " clip-rule="nonzero"/></clipPath></defs><g clip-path="url(#16fd5f7eac)"><g clip-path="url(#ac0a288ba0)"><path fill="#222222" d="M 50.71875 50.71875 L 324.28125 50.71875 L 324.28125 324.28125 L 50.71875 324.28125 Z M 50.71875 50.71875 " fill-opacity="1" fill-rule="nonzero"/></g></g><g fill="#ffffff" fill-opacity="1"><g transform="translate(187.486966, 180.467427)"><g/></g></g><g fill="#ffffff" fill-opacity="1"><g transform="translate(187.486966, 206.717425)"><g/></g></g><g clip-path="url(#60ac488930)"><path fill="#ffffff" d="M 205.386719 253.769531 L 112.855469 253.769531 C 112.28125 253.769531 111.714844 253.710938 111.15625 253.597656 C 110.59375 253.488281 110.050781 253.320312 109.519531 253.101562 C 108.992188 252.882812 108.492188 252.617188 108.015625 252.296875 C 107.539062 251.980469 107.097656 251.621094 106.695312 251.214844 C 106.289062 250.8125 105.929688 250.371094 105.613281 249.898438 C 105.292969 249.421875 105.023438 248.921875 104.804688 248.394531 C 104.585938 247.867188 104.421875 247.320312 104.308594 246.761719 C 104.195312 246.199219 104.140625 245.636719 104.140625 245.0625 L 104.140625 117.4375 C 104.140625 116.867188 104.199219 116.300781 104.3125 115.742188 C 104.425781 115.183594 104.589844 114.640625 104.808594 114.113281 C 105.03125 113.585938 105.296875 113.085938 105.617188 112.613281 C 105.933594 112.140625 106.296875 111.703125 106.699219 111.296875 C 107.105469 110.894531 107.546875 110.535156 108.019531 110.21875 C 108.496094 109.902344 108.996094 109.636719 109.523438 109.417969 C 110.054688 109.199219 110.597656 109.035156 111.15625 108.925781 C 111.71875 108.816406 112.285156 108.757812 112.855469 108.757812 L 205.386719 108.757812 C 205.957031 108.757812 206.523438 108.816406 207.082031 108.925781 C 207.644531 109.035156 208.1875 109.199219 208.714844 109.417969 C 209.242188 109.636719 209.746094 109.902344 210.21875 110.21875 C 210.695312 110.535156 211.136719 110.894531 211.539062 111.296875 C 211.945312 111.703125 212.304688 112.140625 212.625 112.613281 C 212.941406 113.085938 213.210938 113.585938 213.429688 114.113281 C 213.648438 114.640625 213.816406 115.183594 213.929688 115.742188 C 214.042969 116.300781 214.097656 116.867188 214.101562 117.4375 L 214.101562 146.453125 C 214.101562 146.800781 214.003906 147.121094 213.808594 147.410156 C 213.613281 147.699219 213.355469 147.914062 213.035156 148.046875 C 212.710938 148.179688 212.378906 148.210938 212.035156 148.144531 C 211.695312 148.078125 211.398438 147.917969 211.152344 147.671875 L 207.765625 144.289062 C 207.4375 143.960938 207.082031 143.667969 206.695312 143.410156 C 206.308594 143.152344 205.902344 142.933594 205.472656 142.757812 C 205.042969 142.578125 204.601562 142.445312 204.144531 142.355469 C 203.691406 142.265625 203.230469 142.21875 202.765625 142.21875 C 202.300781 142.21875 201.839844 142.265625 201.386719 142.355469 C 200.929688 142.445312 200.488281 142.578125 200.058594 142.757812 C 199.628906 142.933594 199.222656 143.152344 198.835938 143.410156 C 198.449219 143.667969 198.09375 143.960938 197.765625 144.289062 C 197.4375 144.617188 197.144531 144.972656 196.886719 145.359375 C 196.628906 145.746094 196.410156 146.152344 196.234375 146.578125 C 196.054688 147.007812 195.921875 147.449219 195.832031 147.902344 C 195.738281 148.359375 195.695312 148.816406 195.695312 149.28125 C 195.695312 149.746094 195.738281 150.203125 195.832031 150.65625 C 195.921875 151.113281 196.054688 151.554688 196.234375 151.980469 C 196.410156 152.410156 196.628906 152.816406 196.886719 153.203125 C 197.144531 153.589844 197.4375 153.945312 197.765625 154.273438 L 198.089844 154.59375 C 198.371094 154.875 198.535156 155.214844 198.582031 155.613281 C 198.628906 156.011719 198.546875 156.378906 198.335938 156.71875 C 193.792969 164.183594 188.457031 171.039062 182.332031 177.277344 C 176.207031 183.515625 169.449219 188.976562 162.0625 193.660156 L 188.03125 219.601562 C 191.167969 214.472656 194.6875 209.621094 198.59375 205.046875 C 198.921875 204.667969 199.335938 204.46875 199.835938 204.449219 C 200.34375 204.417969 200.773438 204.585938 201.125 204.953125 L 213.59375 217.40625 C 213.929688 217.742188 214.101562 218.148438 214.101562 218.625 L 214.101562 245.0625 C 214.097656 245.636719 214.042969 246.199219 213.929688 246.761719 C 213.820312 247.320312 213.652344 247.867188 213.433594 248.394531 C 213.214844 248.921875 212.945312 249.421875 212.628906 249.898438 C 212.3125 250.371094 211.949219 250.8125 211.546875 251.214844 C 211.140625 251.621094 210.699219 251.980469 210.226562 252.296875 C 209.75 252.617188 209.246094 252.882812 208.71875 253.101562 C 208.191406 253.320312 207.644531 253.488281 207.085938 253.597656 C 206.523438 253.710938 205.957031 253.769531 205.386719 253.769531 Z M 112.855469 112.210938 C 112.511719 112.210938 112.167969 112.242188 111.832031 112.308594 C 111.492188 112.375 111.164062 112.472656 110.847656 112.605469 C 110.527344 112.738281 110.226562 112.898438 109.9375 113.085938 C 109.652344 113.277344 109.386719 113.496094 109.140625 113.738281 C 108.898438 113.980469 108.679688 114.242188 108.488281 114.527344 C 108.296875 114.816406 108.132812 115.117188 108 115.433594 C 107.867188 115.75 107.769531 116.078125 107.699219 116.414062 C 107.632812 116.753906 107.597656 117.09375 107.59375 117.4375 L 107.59375 245.0625 C 107.59375 245.410156 107.628906 245.75 107.695312 246.089844 C 107.765625 246.425781 107.863281 246.753906 107.996094 247.074219 C 108.128906 247.390625 108.289062 247.695312 108.484375 247.980469 C 108.675781 248.269531 108.894531 248.53125 109.136719 248.777344 C 109.382812 249.019531 109.648438 249.238281 109.933594 249.429688 C 110.21875 249.621094 110.523438 249.785156 110.84375 249.917969 C 111.160156 250.046875 111.488281 250.148438 111.828125 250.214844 C 112.167969 250.285156 112.507812 250.316406 112.855469 250.316406 L 205.386719 250.316406 C 205.730469 250.316406 206.074219 250.285156 206.410156 250.214844 C 206.75 250.148438 207.078125 250.046875 207.398438 249.917969 C 207.71875 249.785156 208.019531 249.621094 208.308594 249.429688 C 208.59375 249.238281 208.859375 249.019531 209.105469 248.777344 C 209.347656 248.53125 209.566406 248.269531 209.757812 247.980469 C 209.949219 247.695312 210.113281 247.390625 210.242188 247.074219 C 210.375 246.753906 210.476562 246.425781 210.542969 246.089844 C 210.609375 245.75 210.644531 245.410156 210.644531 245.0625 L 210.644531 219.339844 L 200.015625 208.71875 C 196.246094 213.296875 192.863281 218.144531 189.863281 223.253906 C 189.578125 223.742188 189.152344 224.019531 188.59375 224.089844 C 188.035156 224.160156 187.554688 223.992188 187.152344 223.597656 L 158.074219 194.5625 C 157.886719 194.375 157.75 194.15625 157.664062 193.90625 C 157.578125 193.65625 157.550781 193.398438 157.582031 193.136719 C 157.613281 192.871094 157.703125 192.628906 157.847656 192.40625 C 157.988281 192.183594 158.175781 192.003906 158.402344 191.867188 C 165.773438 187.398438 172.523438 182.136719 178.65625 176.082031 C 184.789062 170.027344 190.136719 163.34375 194.695312 156.035156 C 194.265625 155.519531 193.886719 154.96875 193.558594 154.382812 C 193.234375 153.796875 192.96875 153.183594 192.757812 152.546875 C 192.550781 151.910156 192.402344 151.257812 192.320312 150.589844 C 192.238281 149.925781 192.21875 149.257812 192.261719 148.589844 C 192.304688 147.917969 192.414062 147.261719 192.585938 146.613281 C 192.753906 145.960938 192.984375 145.335938 193.277344 144.730469 C 193.566406 144.125 193.914062 143.554688 194.3125 143.015625 C 194.714844 142.476562 195.160156 141.980469 195.65625 141.527344 C 196.152344 141.078125 196.6875 140.675781 197.257812 140.324219 C 197.832031 139.972656 198.433594 139.679688 199.0625 139.441406 C 199.6875 139.207031 200.335938 139.03125 200.996094 138.921875 C 201.660156 138.808594 202.324219 138.757812 202.996094 138.773438 C 203.667969 138.789062 204.332031 138.867188 204.988281 139.007812 C 205.644531 139.148438 206.28125 139.351562 206.902344 139.617188 C 207.519531 139.878906 208.105469 140.199219 208.660156 140.574219 C 209.21875 140.949219 209.734375 141.375 210.207031 141.851562 L 210.644531 142.285156 L 210.644531 117.445312 C 210.644531 117.101562 210.609375 116.761719 210.542969 116.425781 C 210.472656 116.085938 210.371094 115.757812 210.238281 115.441406 C 210.105469 115.125 209.945312 114.824219 209.753906 114.539062 C 209.558594 114.253906 209.34375 113.988281 209.097656 113.746094 C 208.855469 113.503906 208.589844 113.285156 208.300781 113.097656 C 208.015625 112.90625 207.710938 112.746094 207.394531 112.613281 C 207.074219 112.484375 206.746094 112.382812 206.410156 112.316406 C 206.070312 112.25 205.730469 112.21875 205.386719 112.21875 Z M 196.550781 143.070312 Z M 196.550781 143.070312 " fill-opacity="1" fill-rule="nonzero"/></g><path fill="#ffffff" d="M 182.488281 239.414062 C 181.089844 239.421875 179.746094 239.15625 178.457031 238.625 C 177.167969 238.089844 176.027344 237.328125 175.042969 236.339844 L 145.316406 206.652344 C 144.824219 206.167969 144.382812 205.636719 143.996094 205.0625 C 143.609375 204.488281 143.28125 203.882812 143.011719 203.246094 C 142.742188 202.605469 142.539062 201.949219 142.402344 201.269531 C 142.265625 200.589844 142.195312 199.90625 142.191406 199.210938 C 142.191406 198.519531 142.257812 197.835938 142.390625 197.15625 C 142.523438 196.476562 142.722656 195.816406 142.988281 195.175781 C 143.253906 194.535156 143.578125 193.929688 143.960938 193.351562 C 144.347656 192.777344 144.785156 192.242188 145.273438 191.753906 C 145.765625 191.265625 146.296875 190.828125 146.875 190.445312 C 147.449219 190.058594 148.058594 189.734375 148.699219 189.472656 C 149.339844 189.207031 150 189.007812 150.679688 188.875 C 151.363281 188.742188 152.046875 188.675781 152.742188 188.679688 C 153.433594 188.679688 154.121094 188.75 154.800781 188.886719 C 155.480469 189.023438 156.140625 189.226562 156.777344 189.496094 C 157.417969 189.761719 158.023438 190.089844 158.597656 190.476562 C 159.171875 190.867188 159.703125 191.304688 160.191406 191.796875 L 189.917969 221.484375 C 190.65625 222.21875 191.269531 223.042969 191.761719 223.960938 C 192.25 224.875 192.597656 225.84375 192.804688 226.859375 C 193.007812 227.878906 193.058594 228.90625 192.957031 229.941406 C 192.855469 230.972656 192.605469 231.972656 192.207031 232.929688 C 191.8125 233.890625 191.28125 234.773438 190.621094 235.578125 C 189.960938 236.378906 189.199219 237.070312 188.335938 237.648438 C 187.46875 238.222656 186.539062 238.664062 185.542969 238.964844 C 184.550781 239.265625 183.53125 239.417969 182.492188 239.414062 Z M 152.75 192.160156 C 152.050781 192.160156 151.367188 192.261719 150.699219 192.464844 C 150.03125 192.667969 149.40625 192.960938 148.824219 193.351562 C 148.242188 193.738281 147.730469 194.203125 147.289062 194.742188 C 146.84375 195.28125 146.488281 195.875 146.222656 196.519531 C 145.953125 197.164062 145.785156 197.835938 145.71875 198.53125 C 145.652344 199.226562 145.683594 199.914062 145.820312 200.601562 C 145.957031 201.285156 146.191406 201.933594 146.523438 202.550781 C 146.851562 203.164062 147.265625 203.71875 147.761719 204.214844 L 177.488281 233.902344 C 177.816406 234.226562 178.171875 234.519531 178.558594 234.777344 C 178.941406 235.035156 179.351562 235.253906 179.777344 235.429688 C 180.207031 235.605469 180.648438 235.742188 181.101562 235.832031 C 181.558594 235.921875 182.015625 235.964844 182.480469 235.964844 C 182.945312 235.964844 183.402344 235.921875 183.859375 235.832031 C 184.3125 235.742188 184.753906 235.605469 185.183594 235.429688 C 185.613281 235.253906 186.019531 235.035156 186.40625 234.777344 C 186.789062 234.519531 187.148438 234.226562 187.476562 233.902344 C 187.804688 233.574219 188.097656 233.214844 188.355469 232.832031 C 188.613281 232.445312 188.828125 232.039062 189.007812 231.613281 C 189.183594 231.183594 189.316406 230.742188 189.410156 230.289062 C 189.5 229.835938 189.542969 229.375 189.542969 228.914062 C 189.542969 228.449219 189.5 227.992188 189.410156 227.535156 C 189.316406 227.082031 189.183594 226.640625 189.007812 226.214844 C 188.828125 225.785156 188.613281 225.378906 188.355469 224.992188 C 188.097656 224.609375 187.804688 224.25 187.476562 223.925781 L 157.75 194.238281 C 157.085938 193.574219 156.324219 193.0625 155.457031 192.703125 C 154.589844 192.34375 153.691406 192.160156 152.75 192.160156 Z M 152.75 192.160156 " fill-opacity="1" fill-rule="nonzero"/><path fill="#ffffff" d="M 232.5 189.464844 C 231.105469 189.464844 229.761719 189.203125 228.472656 188.671875 C 227.179688 188.144531 226.042969 187.386719 225.050781 186.40625 L 195.324219 156.71875 C 194.828125 156.230469 194.386719 155.699219 193.996094 155.125 C 193.609375 154.550781 193.277344 153.945312 193.007812 153.304688 C 192.742188 152.667969 192.535156 152.007812 192.398438 151.328125 C 192.257812 150.648438 192.1875 149.960938 192.1875 149.269531 C 192.183594 148.574219 192.25 147.886719 192.382812 147.207031 C 192.515625 146.527344 192.714844 145.867188 192.980469 145.226562 C 193.246094 144.582031 193.570312 143.976562 193.957031 143.398438 C 194.339844 142.820312 194.777344 142.289062 195.269531 141.796875 C 195.761719 141.308594 196.292969 140.871094 196.871094 140.484375 C 197.449219 140.101562 198.058594 139.777344 198.703125 139.511719 C 199.34375 139.246094 200.003906 139.046875 200.6875 138.914062 C 201.367188 138.78125 202.054688 138.714844 202.75 138.71875 C 203.445312 138.71875 204.132812 138.792969 204.8125 138.929688 C 205.492188 139.066406 206.152344 139.269531 206.792969 139.539062 C 207.433594 139.808594 208.039062 140.136719 208.613281 140.527344 C 209.191406 140.914062 209.722656 141.355469 210.207031 141.851562 L 239.933594 171.535156 C 240.417969 172.023438 240.851562 172.554688 241.234375 173.132812 C 241.617188 173.707031 241.9375 174.3125 242.203125 174.949219 C 242.464844 175.585938 242.664062 176.242188 242.796875 176.917969 C 242.933594 177.597656 243 178.277344 243 178.96875 C 243 179.660156 242.933594 180.339844 242.796875 181.019531 C 242.664062 181.695312 242.464844 182.351562 242.203125 182.988281 C 241.9375 183.625 241.617188 184.230469 241.234375 184.804688 C 240.851562 185.382812 240.417969 185.914062 239.933594 186.402344 C 238.945312 187.386719 237.808594 188.144531 236.523438 188.675781 C 235.234375 189.203125 233.894531 189.46875 232.5 189.464844 Z M 202.777344 142.21875 C 202.078125 142.21875 201.394531 142.320312 200.722656 142.519531 C 200.054688 142.722656 199.425781 143.019531 198.84375 143.40625 C 198.261719 143.792969 197.75 144.257812 197.304688 144.796875 C 196.859375 145.335938 196.503906 145.929688 196.234375 146.574219 C 195.96875 147.222656 195.796875 147.890625 195.730469 148.585938 C 195.660156 149.28125 195.695312 149.972656 195.832031 150.660156 C 195.96875 151.34375 196.199219 151.996094 196.53125 152.613281 C 196.859375 153.226562 197.273438 153.785156 197.769531 154.277344 L 227.488281 183.960938 C 227.816406 184.289062 228.175781 184.578125 228.5625 184.835938 C 228.949219 185.09375 229.355469 185.308594 229.785156 185.484375 C 230.214844 185.660156 230.65625 185.792969 231.109375 185.882812 C 231.566406 185.972656 232.023438 186.019531 232.488281 186.019531 C 232.953125 186.019531 233.414062 185.972656 233.867188 185.882812 C 234.320312 185.792969 234.765625 185.660156 235.191406 185.484375 C 235.621094 185.308594 236.03125 185.09375 236.414062 184.835938 C 236.800781 184.578125 237.160156 184.289062 237.488281 183.960938 C 237.816406 183.632812 238.109375 183.277344 238.363281 182.890625 C 238.621094 182.503906 238.839844 182.097656 239.015625 181.667969 C 239.191406 181.238281 239.324219 180.796875 239.417969 180.34375 C 239.507812 179.890625 239.550781 179.429688 239.550781 178.964844 C 239.550781 178.503906 239.507812 178.042969 239.417969 177.589844 C 239.324219 177.132812 239.191406 176.691406 239.015625 176.265625 C 238.839844 175.835938 238.621094 175.429688 238.363281 175.042969 C 238.109375 174.65625 237.816406 174.296875 237.488281 173.96875 L 207.78125 144.289062 C 207.117188 143.625 206.355469 143.109375 205.488281 142.753906 C 204.621094 142.394531 203.714844 142.214844 202.777344 142.21875 Z M 202.777344 142.21875 " fill-opacity="1" fill-rule="nonzero"/><path fill="#ffffff" d="M 188.375 224.105469 C 187.898438 224.105469 187.492188 223.9375 187.152344 223.601562 L 158.074219 194.5625 C 157.886719 194.375 157.75 194.15625 157.664062 193.90625 C 157.578125 193.65625 157.550781 193.398438 157.582031 193.136719 C 157.613281 192.871094 157.703125 192.628906 157.847656 192.40625 C 157.988281 192.183594 158.175781 192.003906 158.402344 191.867188 C 165.960938 187.28125 172.871094 181.863281 179.125 175.613281 C 185.378906 169.367188 190.804688 162.464844 195.394531 154.914062 C 195.6875 154.441406 196.109375 154.171875 196.664062 154.105469 C 197.21875 154.035156 197.695312 154.203125 198.089844 154.597656 L 227.167969 183.640625 C 227.359375 183.832031 227.496094 184.054688 227.582031 184.3125 C 227.667969 184.570312 227.691406 184.832031 227.65625 185.101562 C 227.617188 185.371094 227.519531 185.617188 227.367188 185.839844 C 227.210938 186.0625 227.015625 186.238281 226.777344 186.371094 C 222.070312 188.972656 217.636719 191.984375 213.476562 195.398438 C 212.566406 196.125 211.699219 196.859375 210.835938 197.617188 C 210.652344 197.773438 210.542969 197.863281 210.429688 197.960938 C 207.304688 200.730469 204.367188 203.691406 201.621094 206.84375 C 201.480469 207.015625 201.308594 207.214844 201.140625 207.382812 C 196.921875 212.34375 193.167969 217.632812 189.878906 223.253906 C 189.59375 223.738281 189.167969 224.019531 188.609375 224.089844 C 188.519531 224.101562 188.449219 224.105469 188.375 224.105469 Z M 162.058594 193.664062 L 188.03125 219.601562 C 191.167969 214.472656 194.6875 209.621094 198.59375 205.046875 C 198.78125 204.851562 198.882812 204.730469 198.980469 204.609375 C 201.808594 201.363281 204.835938 198.308594 208.0625 195.457031 C 208.164062 195.347656 208.347656 195.191406 208.527344 195.039062 C 209.457031 194.226562 210.363281 193.460938 211.292969 192.714844 C 215.015625 189.660156 218.957031 186.914062 223.117188 184.480469 L 197.175781 158.566406 C 192.691406 165.636719 187.488281 172.132812 181.5625 178.054688 C 175.640625 183.976562 169.136719 189.179688 162.058594 193.664062 Z M 162.058594 193.664062 " fill-opacity="1" fill-rule="nonzero"/><path fill="#ffffff" d="M 225.222656 233.179688 C 224.746094 233.179688 224.339844 233.011719 224.003906 232.675781 L 198.683594 207.382812 C 198.519531 207.222656 198.394531 207.035156 198.308594 206.824219 C 198.21875 206.613281 198.175781 206.394531 198.175781 206.164062 C 198.175781 205.9375 198.21875 205.714844 198.308594 205.503906 C 198.394531 205.292969 198.519531 205.105469 198.683594 204.945312 C 198.78125 204.84375 198.882812 204.722656 198.980469 204.601562 C 201.808594 201.351562 204.835938 198.300781 208.0625 195.445312 C 208.164062 195.335938 208.347656 195.183594 208.527344 195.027344 C 208.695312 194.886719 208.882812 194.78125 209.089844 194.707031 C 209.296875 194.636719 209.511719 194.601562 209.730469 194.609375 C 209.949219 194.613281 210.160156 194.65625 210.363281 194.742188 C 210.566406 194.824219 210.75 194.941406 210.90625 195.089844 L 236.277344 220.4375 C 236.441406 220.601562 236.566406 220.785156 236.652344 220.996094 C 236.742188 221.210938 236.785156 221.429688 236.785156 221.660156 C 236.785156 221.886719 236.742188 222.109375 236.652344 222.320312 C 236.566406 222.53125 236.441406 222.71875 236.277344 222.878906 L 226.433594 232.675781 C 226.097656 233.011719 225.695312 233.179688 225.222656 233.179688 Z M 202.277344 206.097656 L 225.222656 229.019531 L 232.613281 221.65625 L 209.613281 198.691406 C 207.035156 201.027344 204.585938 203.496094 202.273438 206.097656 Z M 202.277344 206.097656 " fill-opacity="1" fill-rule="nonzero"/><g clip-path="url(#759661ad4d)"><path fill="#ffffff" d="M 256.207031 266.324219 C 254.382812 266.328125 252.625 265.980469 250.9375 265.285156 C 249.25 264.589844 247.761719 263.59375 246.472656 262.304688 L 222.808594 238.671875 C 222.574219 238.433594 222.359375 238.175781 222.175781 237.898438 C 221.988281 237.621094 221.832031 237.324219 221.703125 237.015625 C 221.574219 236.707031 221.480469 236.386719 221.414062 236.058594 C 221.347656 235.730469 221.316406 235.398438 221.316406 235.0625 C 221.316406 234.726562 221.347656 234.394531 221.414062 234.066406 C 221.480469 233.738281 221.574219 233.417969 221.703125 233.109375 C 221.832031 232.800781 221.988281 232.503906 222.175781 232.226562 C 222.359375 231.949219 222.574219 231.691406 222.808594 231.453125 L 235.035156 219.242188 C 235.273438 219.003906 235.53125 218.792969 235.808594 218.609375 C 236.089844 218.421875 236.382812 218.265625 236.695312 218.136719 C 237.003906 218.007812 237.324219 217.914062 237.652344 217.847656 C 237.980469 217.78125 238.3125 217.75 238.648438 217.75 C 238.984375 217.75 239.316406 217.78125 239.644531 217.847656 C 239.976562 217.914062 240.296875 218.007812 240.605469 218.136719 C 240.914062 218.265625 241.210938 218.421875 241.488281 218.609375 C 241.769531 218.792969 242.027344 219.003906 242.265625 219.242188 L 265.925781 242.875 C 266.890625 243.835938 267.695312 244.914062 268.335938 246.113281 C 268.980469 247.3125 269.433594 248.574219 269.699219 249.910156 C 269.964844 251.242188 270.03125 252.585938 269.898438 253.9375 C 269.765625 255.289062 269.441406 256.59375 268.917969 257.847656 C 268.398438 259.105469 267.707031 260.257812 266.84375 261.308594 C 265.980469 262.359375 264.980469 263.261719 263.851562 264.015625 C 262.71875 264.769531 261.5 265.34375 260.199219 265.738281 C 258.898438 266.128906 257.566406 266.328125 256.203125 266.324219 Z M 238.640625 221.183594 C 238.183594 221.183594 237.792969 221.347656 237.46875 221.667969 L 225.246094 233.878906 C 225.089844 234.035156 224.96875 234.210938 224.886719 234.414062 C 224.800781 234.617188 224.761719 234.828125 224.761719 235.046875 C 224.761719 235.269531 224.800781 235.480469 224.886719 235.683594 C 224.96875 235.882812 225.089844 236.0625 225.246094 236.21875 L 248.910156 259.851562 C 249.386719 260.328125 249.910156 260.753906 250.472656 261.128906 C 251.035156 261.503906 251.628906 261.820312 252.253906 262.078125 C 252.878906 262.339844 253.523438 262.53125 254.1875 262.664062 C 254.851562 262.796875 255.523438 262.863281 256.199219 262.863281 C 256.875 262.863281 257.546875 262.796875 258.210938 262.664062 C 258.875 262.53125 259.519531 262.339844 260.144531 262.078125 C 260.769531 261.820312 261.363281 261.503906 261.925781 261.128906 C 262.488281 260.753906 263.011719 260.328125 263.492188 259.851562 C 263.96875 259.375 264.394531 258.855469 264.769531 258.292969 C 265.144531 257.730469 265.460938 257.136719 265.71875 256.511719 C 265.976562 255.886719 266.171875 255.246094 266.304688 254.582031 C 266.433594 253.917969 266.5 253.25 266.5 252.574219 C 266.5 251.898438 266.433594 251.230469 266.300781 250.566406 C 266.167969 249.90625 265.972656 249.261719 265.714844 248.640625 C 265.453125 248.015625 265.136719 247.421875 264.761719 246.859375 C 264.386719 246.300781 263.957031 245.777344 263.480469 245.300781 L 239.816406 221.667969 C 239.492188 221.34375 239.101562 221.183594 238.640625 221.183594 Z M 238.640625 221.183594 " fill-opacity="1" fill-rule="nonzero"/></g><path fill="#ffffff" d="M 180.253906 130.347656 L 120.660156 130.347656 C 120.429688 130.347656 120.210938 130.304688 120 130.214844 C 119.789062 130.128906 119.601562 130.003906 119.4375 129.84375 C 119.277344 129.679688 119.152344 129.492188 119.0625 129.28125 C 118.976562 129.070312 118.933594 128.851562 118.933594 128.621094 C 118.933594 128.394531 118.976562 128.171875 119.0625 127.960938 C 119.152344 127.75 119.277344 127.5625 119.4375 127.402344 C 119.601562 127.242188 119.789062 127.117188 120 127.027344 C 120.210938 126.941406 120.429688 126.898438 120.660156 126.898438 L 180.253906 126.898438 C 180.480469 126.898438 180.703125 126.941406 180.914062 127.027344 C 181.125 127.117188 181.3125 127.242188 181.472656 127.402344 C 181.636719 127.5625 181.761719 127.75 181.847656 127.960938 C 181.933594 128.171875 181.980469 128.394531 181.980469 128.621094 C 181.980469 128.851562 181.933594 129.070312 181.847656 129.28125 C 181.761719 129.492188 181.636719 129.679688 181.472656 129.84375 C 181.3125 130.003906 181.125 130.128906 180.914062 130.214844 C 180.703125 130.304688 180.480469 130.347656 180.253906 130.347656 Z M 180.253906 130.347656 " fill-opacity="1" fill-rule="nonzero"/><path fill="#ffffff" d="M 180.253906 146.488281 L 120.660156 146.488281 C 120.429688 146.488281 120.210938 146.445312 120 146.359375 C 119.789062 146.269531 119.601562 146.144531 119.4375 145.984375 C 119.277344 145.820312 119.152344 145.636719 119.0625 145.425781 C 118.976562 145.210938 118.933594 144.992188 118.933594 144.765625 C 118.933594 144.535156 118.976562 144.316406 119.0625 144.105469 C 119.152344 143.890625 119.277344 143.707031 119.4375 143.542969 C 119.601562 143.382812 119.789062 143.257812 120 143.171875 C 120.210938 143.082031 120.429688 143.039062 120.660156 143.039062 L 180.253906 143.039062 C 180.480469 143.039062 180.703125 143.082031 180.914062 143.171875 C 181.125 143.257812 181.3125 143.382812 181.472656 143.542969 C 181.636719 143.707031 181.761719 143.890625 181.847656 144.105469 C 181.933594 144.316406 181.980469 144.535156 181.980469 144.765625 C 181.980469 144.992188 181.933594 145.210938 181.847656 145.425781 C 181.761719 145.636719 181.636719 145.820312 181.472656 145.984375 C 181.3125 146.144531 181.125 146.269531 180.914062 146.359375 C 180.703125 146.445312 180.480469 146.488281 180.253906 146.488281 Z M 180.253906 146.488281 " fill-opacity="1" fill-rule="nonzero"/><path fill="#ffffff" d="M 169.503906 162.636719 L 120.660156 162.636719 C 120.433594 162.636719 120.210938 162.59375 120 162.503906 C 119.789062 162.417969 119.601562 162.292969 119.441406 162.128906 C 119.277344 161.96875 119.152344 161.78125 119.066406 161.570312 C 118.976562 161.359375 118.933594 161.140625 118.933594 160.910156 C 118.933594 160.683594 118.976562 160.460938 119.066406 160.25 C 119.152344 160.039062 119.277344 159.851562 119.441406 159.691406 C 119.601562 159.527344 119.789062 159.40625 120 159.316406 C 120.210938 159.230469 120.433594 159.183594 120.660156 159.183594 L 169.503906 159.183594 C 169.730469 159.183594 169.953125 159.230469 170.164062 159.316406 C 170.375 159.40625 170.5625 159.527344 170.722656 159.691406 C 170.886719 159.851562 171.011719 160.039062 171.097656 160.25 C 171.1875 160.460938 171.230469 160.683594 171.230469 160.910156 C 171.230469 161.140625 171.1875 161.359375 171.097656 161.570312 C 171.011719 161.78125 170.886719 161.96875 170.722656 162.128906 C 170.5625 162.292969 170.375 162.417969 170.164062 162.503906 C 169.953125 162.59375 169.730469 162.636719 169.503906 162.636719 Z M 169.503906 162.636719 " fill-opacity="1" fill-rule="nonzero"/><path fill="#ffffff" d="M 134.789062 232.300781 C 133.980469 233.484375 132.925781 234.375 131.621094 234.972656 C 130.117188 235.675781 128.53125 236.058594 126.871094 236.125 L 126.871094 238.894531 C 126.882812 239.222656 126.773438 239.503906 126.542969 239.738281 C 126.296875 239.953125 126.011719 240.066406 125.683594 240.070312 C 125.355469 240.074219 125.0625 239.96875 124.8125 239.757812 C 124.578125 239.519531 124.464844 239.230469 124.484375 238.894531 L 124.484375 236.125 C 121.75 235.964844 119.121094 235.355469 116.59375 234.296875 C 116.269531 234.160156 116.007812 233.945312 115.8125 233.652344 C 115.605469 233.367188 115.5 233.046875 115.5 232.695312 C 115.492188 232.25 115.644531 231.867188 115.949219 231.542969 C 116.257812 231.203125 116.640625 231.042969 117.101562 231.054688 C 117.359375 231.054688 117.609375 231.105469 117.84375 231.210938 C 119.960938 232.152344 122.175781 232.671875 124.488281 232.773438 L 124.488281 223.804688 C 122.957031 223.417969 121.464844 222.910156 120.015625 222.28125 C 118.816406 221.753906 117.804688 220.976562 116.984375 219.957031 C 116.121094 218.835938 115.71875 217.566406 115.777344 216.152344 C 115.765625 214.8125 116.097656 213.5625 116.769531 212.40625 C 117.503906 211.183594 118.492188 210.234375 119.742188 209.554688 C 121.222656 208.746094 122.804688 208.292969 124.492188 208.1875 L 124.492188 205.441406 C 124.480469 205.109375 124.59375 204.820312 124.820312 204.578125 C 125.050781 204.335938 125.332031 204.222656 125.664062 204.234375 C 125.824219 204.234375 125.980469 204.261719 126.128906 204.324219 C 126.277344 204.382812 126.410156 204.472656 126.523438 204.585938 C 126.636719 204.699219 126.722656 204.828125 126.785156 204.976562 C 126.84375 205.125 126.875 205.28125 126.875 205.441406 L 126.875 208.132812 C 129.210938 208.195312 131.480469 208.625 133.675781 209.421875 C 134.019531 209.523438 134.292969 209.71875 134.5 210.011719 C 134.703125 210.304688 134.796875 210.628906 134.773438 210.984375 C 134.773438 211.417969 134.628906 211.792969 134.34375 212.117188 C 134.046875 212.472656 133.667969 212.640625 133.207031 212.625 C 132.988281 212.613281 132.78125 212.558594 132.582031 212.46875 C 130.734375 211.828125 128.832031 211.476562 126.875 211.414062 L 126.875 220.707031 C 128.46875 221.058594 130.023438 221.539062 131.535156 222.152344 C 132.769531 222.660156 133.808594 223.433594 134.644531 224.472656 C 135.554688 225.683594 135.96875 227.042969 135.894531 228.550781 C 135.910156 229.914062 135.542969 231.164062 134.789062 232.300781 Z M 120.640625 218.519531 C 121.828125 219.28125 123.109375 219.816406 124.488281 220.121094 L 124.488281 211.523438 C 123.109375 211.65625 121.855469 212.128906 120.734375 212.949219 C 120.28125 213.292969 119.929688 213.71875 119.679688 214.234375 C 119.433594 214.746094 119.316406 215.289062 119.332031 215.859375 C 119.304688 216.382812 119.410156 216.882812 119.640625 217.355469 C 119.875 217.832031 120.207031 218.21875 120.640625 218.519531 Z M 132.386719 228.316406 C 132.394531 227.828125 132.273438 227.367188 132.027344 226.941406 C 131.777344 226.519531 131.4375 226.191406 131.003906 225.957031 C 129.699219 225.246094 128.324219 224.71875 126.875 224.375 L 126.875 232.769531 C 130.550781 232.507812 132.386719 231.023438 132.386719 228.316406 Z M 132.386719 228.316406 " fill-opacity="1" fill-rule="nonzero"/></svg>